%TF.GenerationSoftware,Altium Limited,Altium Designer,25.8.1 (18)*%
G04 Layer_Color=8421504*
%FSLAX45Y45*%
%MOMM*%
%TF.SameCoordinates,E56288D2-CEBC-47D0-9147-D9EE581E70AB*%
%TF.FilePolarity,Positive*%
%TF.FileFunction,Paste,Top*%
%TF.Part,Single*%
G01*
G75*
%TA.AperFunction,SMDPad,CuDef*%
%ADD10O,1.55000X0.25000*%
%ADD11O,0.25000X1.55000*%
G04:AMPARAMS|DCode=12|XSize=1.37mm|YSize=0.59mm|CornerRadius=0.1475mm|HoleSize=0mm|Usage=FLASHONLY|Rotation=90.000|XOffset=0mm|YOffset=0mm|HoleType=Round|Shape=RoundedRectangle|*
%AMROUNDEDRECTD12*
21,1,1.37000,0.29500,0,0,90.0*
21,1,1.07500,0.59000,0,0,90.0*
1,1,0.29500,0.14750,0.53750*
1,1,0.29500,0.14750,-0.53750*
1,1,0.29500,-0.14750,-0.53750*
1,1,0.29500,-0.14750,0.53750*
%
%ADD12ROUNDEDRECTD12*%
G04:AMPARAMS|DCode=13|XSize=1.97mm|YSize=0.6mm|CornerRadius=0.075mm|HoleSize=0mm|Usage=FLASHONLY|Rotation=90.000|XOffset=0mm|YOffset=0mm|HoleType=Round|Shape=RoundedRectangle|*
%AMROUNDEDRECTD13*
21,1,1.97000,0.45000,0,0,90.0*
21,1,1.82000,0.60000,0,0,90.0*
1,1,0.15000,0.22500,0.91000*
1,1,0.15000,0.22500,-0.91000*
1,1,0.15000,-0.22500,-0.91000*
1,1,0.15000,-0.22500,0.91000*
%
%ADD13ROUNDEDRECTD13*%
%ADD15R,0.85000X1.60000*%
%ADD16R,0.65000X0.90000*%
%ADD17R,1.22000X0.40000*%
%ADD18R,0.80000X0.80000*%
%ADD19R,0.60000X0.50000*%
%ADD20R,2.50000X1.70000*%
%ADD21R,2.50000X1.50000*%
%ADD22R,7.00000X7.00000*%
G04:AMPARAMS|DCode=23|XSize=1.80524mm|YSize=0.61213mm|CornerRadius=0.30606mm|HoleSize=0mm|Usage=FLASHONLY|Rotation=270.000|XOffset=0mm|YOffset=0mm|HoleType=Round|Shape=RoundedRectangle|*
%AMROUNDEDRECTD23*
21,1,1.80524,0.00000,0,0,270.0*
21,1,1.19311,0.61213,0,0,270.0*
1,1,0.61213,0.00000,-0.59655*
1,1,0.61213,0.00000,0.59655*
1,1,0.61213,0.00000,0.59655*
1,1,0.61213,0.00000,-0.59655*
%
%ADD23ROUNDEDRECTD23*%
%ADD24R,0.61213X1.80524*%
%ADD25R,1.90464X3.45620*%
%ADD26R,0.75000X0.90000*%
%ADD27R,1.30000X1.60000*%
G04:AMPARAMS|DCode=28|XSize=0.25mm|YSize=1.15mm|CornerRadius=0.05mm|HoleSize=0mm|Usage=FLASHONLY|Rotation=180.000|XOffset=0mm|YOffset=0mm|HoleType=Round|Shape=RoundedRectangle|*
%AMROUNDEDRECTD28*
21,1,0.25000,1.05000,0,0,180.0*
21,1,0.15000,1.15000,0,0,180.0*
1,1,0.10000,-0.07500,0.52500*
1,1,0.10000,0.07500,0.52500*
1,1,0.10000,0.07500,-0.52500*
1,1,0.10000,-0.07500,-0.52500*
%
%ADD28ROUNDEDRECTD28*%
G04:AMPARAMS|DCode=29|XSize=0.65mm|YSize=1.2mm|CornerRadius=0.04875mm|HoleSize=0mm|Usage=FLASHONLY|Rotation=0.000|XOffset=0mm|YOffset=0mm|HoleType=Round|Shape=RoundedRectangle|*
%AMROUNDEDRECTD29*
21,1,0.65000,1.10250,0,0,0.0*
21,1,0.55250,1.20000,0,0,0.0*
1,1,0.09750,0.27625,-0.55125*
1,1,0.09750,-0.27625,-0.55125*
1,1,0.09750,-0.27625,0.55125*
1,1,0.09750,0.27625,0.55125*
%
%ADD29ROUNDEDRECTD29*%
%ADD30R,1.00000X1.05000*%
%ADD31R,0.90000X0.85000*%
%ADD32R,0.90000X0.80000*%
%ADD33R,1.80000X2.00000*%
%ADD34R,0.80000X0.80000*%
%ADD35R,1.30000X1.55000*%
%ADD36R,0.90000X0.75000*%
%ADD37R,0.85000X0.90000*%
%ADD38R,0.50000X0.60000*%
G04:AMPARAMS|DCode=39|XSize=0.65mm|YSize=1.2mm|CornerRadius=0.04875mm|HoleSize=0mm|Usage=FLASHONLY|Rotation=90.000|XOffset=0mm|YOffset=0mm|HoleType=Round|Shape=RoundedRectangle|*
%AMROUNDEDRECTD39*
21,1,0.65000,1.10250,0,0,90.0*
21,1,0.55250,1.20000,0,0,90.0*
1,1,0.09750,0.55125,0.27625*
1,1,0.09750,0.55125,-0.27625*
1,1,0.09750,-0.55125,-0.27625*
1,1,0.09750,-0.55125,0.27625*
%
%ADD39ROUNDEDRECTD39*%
%ADD40R,0.90000X0.65000*%
%ADD41C,0.80000*%
G36*
X-3533000Y3824500D02*
Y3695500D01*
X-3697000D01*
Y3824500D01*
X-3533000D01*
D02*
G37*
D10*
X-1765000Y1577500D02*
D03*
Y1827500D02*
D03*
Y1777500D02*
D03*
Y1727500D02*
D03*
Y1677500D02*
D03*
Y1527500D02*
D03*
Y1477500D02*
D03*
Y1427500D02*
D03*
X-2570000D02*
D03*
Y1477500D02*
D03*
Y1527500D02*
D03*
Y1577500D02*
D03*
Y1627500D02*
D03*
Y1677500D02*
D03*
Y1727500D02*
D03*
Y1777500D02*
D03*
Y1977500D02*
D03*
X-1765000Y1627500D02*
D03*
X-2570000Y1877500D02*
D03*
Y1927500D02*
D03*
Y1827500D02*
D03*
X-1765000Y1877500D02*
D03*
Y1977500D02*
D03*
Y1927500D02*
D03*
D11*
X-2342500Y2105000D02*
D03*
X-2292500D02*
D03*
X-2092500D02*
D03*
X-2042500D02*
D03*
X-1992500D02*
D03*
X-1942500D02*
D03*
X-1992500Y1300000D02*
D03*
X-2042500D02*
D03*
X-2292500D02*
D03*
X-2342500D02*
D03*
X-2392500D02*
D03*
X-2442500D02*
D03*
X-2142500Y2105000D02*
D03*
X-2092500Y1300000D02*
D03*
X-2242500Y2105000D02*
D03*
X-2192500Y1300000D02*
D03*
X-1892500Y2105000D02*
D03*
X-2142500Y1300000D02*
D03*
X-2242500D02*
D03*
X-2192500Y2105000D02*
D03*
X-1892500Y1300000D02*
D03*
X-2442500Y2105000D02*
D03*
X-2392500D02*
D03*
X-1942500Y1300000D02*
D03*
D12*
X-3564999Y4903000D02*
D03*
X-3754999Y5137000D02*
D03*
Y4903000D02*
D03*
X-3659999D02*
D03*
X-3564999Y5137000D02*
D03*
X-3659999D02*
D03*
D13*
X-3424500Y4007500D02*
D03*
X-3678500Y3512500D02*
D03*
Y4007500D02*
D03*
X-3551500D02*
D03*
X-3424500Y3512500D02*
D03*
X-3805500Y4007500D02*
D03*
Y3512500D02*
D03*
X-3551500D02*
D03*
D15*
X-4380000Y3804429D02*
D03*
X-4115000D02*
D03*
D16*
X-4509648Y5467700D02*
D03*
X-4654648D02*
D03*
D17*
X-2811000Y4337500D02*
D03*
Y4207500D02*
D03*
X-2549000Y4142500D02*
D03*
Y4207500D02*
D03*
Y4272500D02*
D03*
X-2811000D02*
D03*
X-2549000Y4337500D02*
D03*
X-2811000Y4142500D02*
D03*
D18*
X-2270000Y5810000D02*
D03*
Y5960000D02*
D03*
X-2450400Y5810000D02*
D03*
Y5960000D02*
D03*
D19*
X-2244600Y625000D02*
D03*
Y475000D02*
D03*
X-3880000Y5345000D02*
D03*
Y5495000D02*
D03*
X-2613300Y5929820D02*
D03*
Y5779820D02*
D03*
X-2107100Y5931993D02*
D03*
Y5781993D02*
D03*
X-825000Y2670000D02*
D03*
Y2520000D02*
D03*
X-340000Y2675000D02*
D03*
Y2525000D02*
D03*
X-724311Y1747100D02*
D03*
Y1897100D02*
D03*
X-2290000Y2320000D02*
D03*
Y2470000D02*
D03*
X-2090026Y1132100D02*
D03*
Y982100D02*
D03*
X-1770710Y3475400D02*
D03*
Y3625400D02*
D03*
X-1625224D02*
D03*
Y3475400D02*
D03*
X-1953801Y475000D02*
D03*
Y625000D02*
D03*
X-2099201D02*
D03*
Y475000D02*
D03*
X-2390000Y475000D02*
D03*
Y625000D02*
D03*
D20*
X-3700000Y4350000D02*
D03*
X-3300000D02*
D03*
X-3240000Y5600000D02*
D03*
X-3640000D02*
D03*
D21*
X-639999Y5010000D02*
D03*
Y4550000D02*
D03*
D22*
X-1329999Y4780000D02*
D03*
D23*
X-3075000Y2547451D02*
D03*
X-3170001Y2777547D02*
D03*
X-3265001D02*
D03*
Y2547451D02*
D03*
D24*
X-3075000Y2777547D02*
D03*
D25*
X-1017422Y5560000D02*
D03*
X-1562578D02*
D03*
X-1425000Y4075000D02*
D03*
X-1970157D02*
D03*
D26*
X-2690000Y3990000D02*
D03*
X-2810000D02*
D03*
X-627499Y2532500D02*
D03*
X-507500D02*
D03*
X-1757500Y3300000D02*
D03*
X-1637500D02*
D03*
X-2265000Y850000D02*
D03*
X-2385000D02*
D03*
D27*
X-3372500Y2062500D02*
D03*
X-3142500Y1682500D02*
D03*
Y2062500D02*
D03*
X-3372500Y1682500D02*
D03*
D28*
X-1722579Y2682500D02*
D03*
X-1672579D02*
D03*
X-1622579D02*
D03*
X-1672579Y3107500D02*
D03*
X-1722579D02*
D03*
X-1622579D02*
D03*
X-1522579Y2682500D02*
D03*
X-1572579D02*
D03*
X-1522579Y3107500D02*
D03*
X-1572579D02*
D03*
D29*
X-505000Y2980000D02*
D03*
X-695000D02*
D03*
X-505000Y3275000D02*
D03*
X-695000D02*
D03*
X-600000D02*
D03*
D30*
X-2957100Y1763438D02*
D03*
Y1613438D02*
D03*
X-2957100Y1958903D02*
D03*
Y2108903D02*
D03*
D31*
X-300000Y3035000D02*
D03*
Y2915000D02*
D03*
D32*
X-900000Y2937500D02*
D03*
Y3062500D02*
D03*
X-1291275Y1499437D02*
D03*
Y1374437D02*
D03*
X-1024575Y1499437D02*
D03*
Y1374437D02*
D03*
D33*
X-3065000Y4815000D02*
D03*
Y5265000D02*
D03*
D34*
X-4260000Y5160000D02*
D03*
X-4500000Y5255000D02*
D03*
Y5065000D02*
D03*
X-4025000Y2380400D02*
D03*
X-4175000D02*
D03*
X-4025000Y2200000D02*
D03*
X-4175000D02*
D03*
D35*
X-2400000Y4600000D02*
D03*
Y5395000D02*
D03*
X-1950000D02*
D03*
Y4600000D02*
D03*
D36*
X-3940000Y4990000D02*
D03*
Y5110000D02*
D03*
X-3210000Y4010000D02*
D03*
Y3890000D02*
D03*
X-4050000Y5490000D02*
D03*
Y5370000D02*
D03*
X-3495401Y2765182D02*
D03*
Y2645182D02*
D03*
X-2844600Y2543451D02*
D03*
Y2663451D02*
D03*
X-1325000Y2885000D02*
D03*
Y2765000D02*
D03*
X-3212100Y3487861D02*
D03*
Y3607861D02*
D03*
D37*
X-310000Y3275000D02*
D03*
X-190000D02*
D03*
D38*
X-3675000Y3310000D02*
D03*
X-3525000D02*
D03*
X-3750676Y5343407D02*
D03*
X-3600676D02*
D03*
X-1293675Y1626437D02*
D03*
X-1443675D02*
D03*
X-1176975D02*
D03*
X-1026975D02*
D03*
X-3844800Y2380400D02*
D03*
X-3694800D02*
D03*
X-3844800Y2200000D02*
D03*
X-3694800D02*
D03*
X-3950000Y1550000D02*
D03*
X-3800000D02*
D03*
X-3950000Y1404600D02*
D03*
X-3800000D02*
D03*
X-1899994Y2944920D02*
D03*
X-2049994D02*
D03*
X-1900012Y2799521D02*
D03*
X-2050013D02*
D03*
X-538424Y1892100D02*
D03*
X-388423D02*
D03*
D39*
X-417500Y2277500D02*
D03*
X-712500D02*
D03*
X-417500Y2087500D02*
D03*
X-712500D02*
D03*
Y2182500D02*
D03*
D40*
X-4640000Y5097500D02*
D03*
Y5242500D02*
D03*
D41*
X-1890000Y3630000D02*
D03*
X-1510000D02*
D03*
%TF.MD5,de1c6478be802f8c7dbd8befd6b21f7f*%
M02*
