M48
;Layer_Color=9474304
;FILE_FORMAT=2:5
INCH,LZ
;TYPE=PLATED
T01F00S00C0.00787
T02F00S00C0.01181
T03F00S00C0.01575
T04F00S00C0.03543
T05F00S00C0.03937
T06F00S00C0.04331
T07F00S00C0.09843
%
T01
X-0066929Y003937
X-0062992
X-0059055
X-005315
X-0049213
X-0045276
X-0040354Y0051181
X-0040338Y0054112
X-0033465Y005315
X-0029528
X-0025591
X-0017717Y0061024
X-001378
X-0009843
X-0012795Y007185
X-0011811Y0073819
X-0022638Y0084646
Y0087598
X-0033465Y008563
X-0034449Y0088583
Y0082677
X-0041339Y0084646
Y007874
X-0042323Y0069882
X-0037402
X-0047244
X-0052165
X-0057087
X-0062008Y0073819
X-0062587Y0077282
X-0064739Y0076188
X-0064961Y0079528
X-0062992Y0084646
Y009252
X-0041339
Y0098425
X-0048228Y0105315
Y0108268
Y0111221
X-0052461Y0117421
X-0056498Y0115525
X-0059407Y0115092
X-0058107Y0117815
X-0061264Y011732
X-006182Y0126233
X-0055118Y0129921
Y0135433
Y0139764
Y0145276
X-0048819
Y0139764
Y0135433
Y0129921
X-0051181Y0126969
X-0037402Y0125
X-0033465
X-003248Y0132874
X-0023622Y0133858
Y0136811
X-0015748Y0139764
Y0145276
Y0151575
X-0009449
Y0145276
Y0139764
X-000689Y0138779
Y0135827
Y0132874
X-0012222Y0133818
X-0015748Y0119095
X-0014764Y0111221
X-0011811
X-0015748Y0094488
X-0033465Y0149606
X-0041339Y0145669
X-0050838Y0054112
X-0051181Y0051181
X-0064961Y0050197
Y005315
X-0067913
X-0076544Y0056228
Y0058506
X-007874Y0068898
X-0094821Y0070571
X-0094163Y0078567
X-0092318Y0077583
X-0090506Y0076496
X-0096229Y0090483
X-0100394Y0087598
X-0111221Y0082677
Y0079724
X-0121063Y0088583
X-0125
X-0128937
X-0137795Y0100394
X-0140945
X-0143307Y0106299
Y0111811
X-0137795Y0111582
Y0114173
X-0143307Y011811
Y0123622
X-0138976Y0127559
X-0136221
X-0135827Y0122047
X-0127953
X-0124803Y0118504
Y0115354
X-011816Y0109449
X-0115354
X-0108661Y010748
Y0104724
X-010748Y01
X-0104724
X-0090158Y0101575
Y0104724
X-0091339Y0114961
X-0094488
X-0100394Y0115354
X-0080709Y012126
X-0078347Y0125984
Y0131496
X-0084646
Y0125984
Y0139764
Y0145276
X-0078347
Y0139764
X-0071653Y0120079
X-0077559Y0110236
X-0070866Y009252
Y0084646
X-0074409Y0045669
X-0077107Y0039064
X-0079499Y0039111
X-0093681Y003008
X-0096026Y0030128
X-01Y0029528
Y0035039
X-0106299
Y0029528
Y0043307
X-01
Y0048819
X-0112992Y0047244
Y004152
X-0114173Y005315
X-011811
X-0122047
X-0122047Y0057087
X-0117126
X-0113189
X-0109252
X-0138583Y0064173
Y006811
Y0072047
X-0139764Y007874
X-0143701
X-0147638
X-0153543Y0077756
Y0073819
Y0069882
Y0081693
X-0163386Y0081102
X-0166929
X-0170079
X-0177165Y0082677
Y0072835
Y0062992
Y005315
X-0155512Y0048819
Y0043307
X-0149213
Y0048819
Y0035039
Y0029528
X-0155512
Y0035039
X-0148425Y0023228
Y0019685
Y0016142
X-0088583Y0011811
X-0082677
Y0015748
X-0116142Y0125984
Y0131496
Y0139764
Y0145276
X-0123228Y0148031
X-0126378
X-0129528
X-0126598Y0133282
X-0122047Y0125984
X-0155118Y0133268
Y0138189
Y014311
X-0163386Y0123622
Y011811
Y0111811
Y0106299
X-0170866
Y0111811
Y0098032
Y009252
X-0163386Y0098425
X-0183071Y0133858
Y0141732
Y0149606
Y015748
Y0162992
X-017126
Y015748
X-0164961
Y0162992
X-0161417Y0162205
X-0158268Y0157874
X-0154724
X-0153543Y0177165
X-0147638
X-0141732
X-0115748Y0170866
X-0115354Y0162992
Y0159843
Y0156693
X-0094488Y0154331
X-0096457Y0165354
X-0095928Y0173529
X-0089629
X-0085616Y0175786
X-0082677Y0175197
Y0179134
X-0088583
X-0075995Y0173729
X-0082284Y0222047
X-0088583
X-0104724Y022126
X-0112205Y023189
X-0118504
X-0125984
X-0132283
X-0138976
X-0145276
X-0152362
X-0158661
X-0167323Y0216142
Y0211024
X-0172441
Y0216142
X-0183071Y0218504
X-0181496Y0195276
Y0192913
Y0189764
X-0175984
Y019252
Y0195276
X-0181102Y0181102
X-0187008
X-0159449Y0207874
X-0156299Y0205906
X-0152362
X-0144488Y0206693
X-0144095Y021063
X-0138189Y0211417
X-0070079Y0232283
X-0063779
X-0056693
X-0050394
X-0042126
X-0035827
X-0003937Y0216535
Y0206693
Y019685
Y0185039
X-0009449Y0170866
Y0165354
X-0015748
Y0170866
X-0025591Y017126
Y0163386
Y0155512
X-0015748Y0157087
X-0009449
T02
X-0159449Y0220472
Y022441
X-0155118
X-0150394
X-0099409Y0222441
X-0076772Y0231716
T03
X-0146516Y0145571
X-0142579
X-0138248
Y0150295
X-0142579
X-0146516
X-0155512Y017126
X-0087598Y0166339
X-0083661
Y0160433
X-0087598
Y0154528
X-0083661
X-0068898Y0212598
Y0218898
Y0225394
X-0072835Y0222441
T04
X-0141732Y0019685
X-013189
X-0122047
X-0112205
T05
X-0170472Y0123031
Y0132874
Y0170276
Y0180118
T06
X-0167323Y004315
Y005315
Y006315
Y007315
T07
X-0010138Y0009941
X-0179134Y0009843
Y0231102
X-0010138Y0231201
M30
