%TF.GenerationSoftware,Altium Limited,Altium Designer,25.8.1 (18)*%
G04 Layer_Color=32896*
%FSLAX45Y45*%
%MOMM*%
%TF.SameCoordinates,F231EB36-2055-4CEA-98A4-6A383FAB9A67*%
%TF.FilePolarity,Positive*%
%TF.FileFunction,Legend,Bot*%
%TF.Part,Single*%
G01*
G75*
%TA.AperFunction,NonConductor*%
%ADD54C,0.20000*%
G36*
X-2035808Y1513061D02*
X-2034236Y1514170D01*
X-2033589Y1514725D01*
X-2032942Y1515187D01*
X-2032387Y1515649D01*
X-2032017Y1516019D01*
X-2031740Y1516297D01*
X-2031647Y1516389D01*
X-2031185Y1516851D01*
X-2030723Y1517406D01*
X-2029521Y1518701D01*
X-2028134Y1520180D01*
X-2026747Y1521752D01*
X-2025545Y1523231D01*
X-2024990Y1523878D01*
X-2024436Y1524433D01*
X-2024066Y1524895D01*
X-2023788Y1525265D01*
X-2023604Y1525450D01*
X-2023511Y1525542D01*
X-2022217Y1527022D01*
X-2021015Y1528501D01*
X-2019813Y1529795D01*
X-2018796Y1530997D01*
X-2017779Y1532107D01*
X-2016854Y1533031D01*
X-2016022Y1533956D01*
X-2015282Y1534695D01*
X-2014543Y1535435D01*
X-2013988Y1535990D01*
X-2013526Y1536452D01*
X-2013064Y1536914D01*
X-2012509Y1537377D01*
X-2012324Y1537562D01*
X-2010752Y1538856D01*
X-2009365Y1539965D01*
X-2007978Y1540890D01*
X-2006869Y1541630D01*
X-2005852Y1542184D01*
X-2005112Y1542554D01*
X-2004650Y1542739D01*
X-2004465Y1542832D01*
X-2003078Y1543386D01*
X-2001691Y1543756D01*
X-2000397Y1544126D01*
X-1999288Y1544311D01*
X-1998271Y1544403D01*
X-1997531Y1544496D01*
X-1997069D01*
X-1996884D01*
X-1995497Y1544403D01*
X-1994203Y1544218D01*
X-1992908Y1544033D01*
X-1991799Y1543664D01*
X-1989580Y1542739D01*
X-1987823Y1541815D01*
X-1986991Y1541260D01*
X-1986344Y1540798D01*
X-1985697Y1540335D01*
X-1985234Y1539873D01*
X-1984864Y1539503D01*
X-1984495Y1539318D01*
X-1984402Y1539133D01*
X-1984310Y1539041D01*
X-1983385Y1538024D01*
X-1982553Y1536914D01*
X-1981906Y1535712D01*
X-1981351Y1534511D01*
X-1980427Y1532107D01*
X-1979779Y1529703D01*
X-1979594Y1528686D01*
X-1979410Y1527669D01*
X-1979317Y1526744D01*
X-1979225Y1526005D01*
X-1979132Y1525357D01*
Y1524433D01*
X-1979225Y1522769D01*
X-1979317Y1521197D01*
X-1979594Y1519718D01*
X-1979872Y1518331D01*
X-1980242Y1517036D01*
X-1980611Y1515834D01*
X-1981074Y1514725D01*
X-1981536Y1513708D01*
X-1981998Y1512783D01*
X-1982461Y1512044D01*
X-1982830Y1511397D01*
X-1983200Y1510842D01*
X-1983478Y1510380D01*
X-1983755Y1510102D01*
X-1983847Y1509917D01*
X-1983940Y1509825D01*
X-1984864Y1508900D01*
X-1985881Y1508068D01*
X-1986991Y1507236D01*
X-1988100Y1506589D01*
X-1990319Y1505479D01*
X-1992538Y1504740D01*
X-1993555Y1504462D01*
X-1994572Y1504185D01*
X-1995404Y1504000D01*
X-1996144Y1503815D01*
X-1996791Y1503723D01*
X-1997254D01*
X-1997531Y1503630D01*
X-1997623D01*
X-1998455Y1511674D01*
X-1996329Y1511859D01*
X-1994480Y1512229D01*
X-1992816Y1512783D01*
X-1991521Y1513431D01*
X-1990412Y1513985D01*
X-1989672Y1514540D01*
X-1989210Y1514910D01*
X-1989025Y1515095D01*
X-1987916Y1516482D01*
X-1987083Y1517961D01*
X-1986436Y1519533D01*
X-1986066Y1520919D01*
X-1985789Y1522214D01*
X-1985697Y1523323D01*
X-1985604Y1523693D01*
Y1524248D01*
X-1985697Y1526189D01*
X-1986066Y1527946D01*
X-1986621Y1529425D01*
X-1987176Y1530720D01*
X-1987823Y1531737D01*
X-1988285Y1532384D01*
X-1988655Y1532846D01*
X-1988840Y1533031D01*
X-1990134Y1534141D01*
X-1991429Y1534973D01*
X-1992723Y1535620D01*
X-1994018Y1535990D01*
X-1995035Y1536267D01*
X-1995959Y1536360D01*
X-1996514Y1536452D01*
X-1996606D01*
X-1996699D01*
X-1998363Y1536267D01*
X-2000120Y1535897D01*
X-2001691Y1535250D01*
X-2003171Y1534603D01*
X-2004373Y1533863D01*
X-2005390Y1533216D01*
X-2005760Y1533031D01*
X-2006037Y1532846D01*
X-2006129Y1532661D01*
X-2006222D01*
X-2007239Y1531922D01*
X-2008256Y1530997D01*
X-2009365Y1529980D01*
X-2010475Y1528871D01*
X-2012694Y1526559D01*
X-2014913Y1524248D01*
X-2015930Y1523046D01*
X-2016854Y1522029D01*
X-2017686Y1521012D01*
X-2018426Y1520180D01*
X-2018981Y1519533D01*
X-2019443Y1518978D01*
X-2019720Y1518608D01*
X-2019813Y1518516D01*
X-2021754Y1516204D01*
X-2023604Y1514078D01*
X-2025268Y1512321D01*
X-2026655Y1510934D01*
X-2027856Y1509732D01*
X-2028689Y1508900D01*
X-2029243Y1508438D01*
X-2029336Y1508253D01*
X-2029428D01*
X-2031000Y1506959D01*
X-2032479Y1505942D01*
X-2033959Y1505017D01*
X-2035253Y1504277D01*
X-2036362Y1503723D01*
X-2037195Y1503353D01*
X-2037749Y1503168D01*
X-2037842Y1503075D01*
X-2037934D01*
X-2038951Y1502706D01*
X-2039876Y1502521D01*
X-2040800Y1502336D01*
X-2041632Y1502243D01*
X-2042372Y1502151D01*
X-2042927D01*
X-2043297D01*
X-2043389D01*
Y1544588D01*
X-2035808D01*
Y1513061D01*
D02*
G37*
G36*
X-1979132Y1478020D02*
X-1980704Y1477095D01*
X-1982183Y1476078D01*
X-1983663Y1474876D01*
X-1984957Y1473767D01*
X-1986066Y1472657D01*
X-1986991Y1471825D01*
X-1987268Y1471456D01*
X-1987546Y1471178D01*
X-1987638Y1471086D01*
X-1987731Y1470993D01*
X-1989302Y1469052D01*
X-1990782Y1467110D01*
X-1992076Y1465261D01*
X-1993093Y1463412D01*
X-1994018Y1461840D01*
X-1994387Y1461193D01*
X-1994665Y1460638D01*
X-1994942Y1460176D01*
X-1995035Y1459806D01*
X-1995220Y1459621D01*
Y1459529D01*
X-2002801D01*
X-2002246Y1460916D01*
X-2001599Y1462302D01*
X-2000952Y1463689D01*
X-2000305Y1464984D01*
X-1999750Y1466093D01*
X-1999288Y1467018D01*
X-1998918Y1467572D01*
X-1998825Y1467665D01*
Y1467757D01*
X-1997808Y1469421D01*
X-1996791Y1470901D01*
X-1995867Y1472195D01*
X-1995035Y1473212D01*
X-1994387Y1474137D01*
X-1993833Y1474691D01*
X-1993463Y1475154D01*
X-1993370Y1475246D01*
X-2043389D01*
Y1483105D01*
X-1979132D01*
Y1478020D01*
D02*
G37*
G36*
X-2021015Y1437802D02*
X-2022494Y1437432D01*
X-2023881Y1436969D01*
X-2025175Y1436507D01*
X-2026377Y1436045D01*
X-2027487Y1435490D01*
X-2028411Y1434935D01*
X-2029336Y1434288D01*
X-2030168Y1433733D01*
X-2030908Y1433271D01*
X-2031462Y1432716D01*
X-2032017Y1432254D01*
X-2032479Y1431884D01*
X-2032757Y1431515D01*
X-2033034Y1431237D01*
X-2033126Y1431145D01*
X-2033219Y1431052D01*
X-2033959Y1430128D01*
X-2034513Y1429111D01*
X-2035530Y1427077D01*
X-2036270Y1425135D01*
X-2036732Y1423193D01*
X-2037102Y1421529D01*
X-2037195Y1420882D01*
Y1420235D01*
X-2037287Y1419680D01*
Y1419033D01*
X-2037195Y1416906D01*
X-2036825Y1414872D01*
X-2036362Y1413023D01*
X-2035808Y1411359D01*
X-2035253Y1410065D01*
X-2034976Y1409510D01*
X-2034791Y1409048D01*
X-2034606Y1408678D01*
X-2034421Y1408401D01*
X-2034328Y1408216D01*
Y1408123D01*
X-2033034Y1406367D01*
X-2031647Y1404887D01*
X-2030075Y1403593D01*
X-2028596Y1402576D01*
X-2027302Y1401744D01*
X-2026192Y1401189D01*
X-2025730Y1401004D01*
X-2025453Y1400819D01*
X-2025268Y1400727D01*
X-2025175D01*
X-2022771Y1399987D01*
X-2020368Y1399432D01*
X-2017964Y1398970D01*
X-2015745Y1398693D01*
X-2014728Y1398600D01*
X-2013803Y1398508D01*
X-2012971D01*
X-2012324Y1398415D01*
X-2011769D01*
X-2011307D01*
X-2011030D01*
X-2010937D01*
X-2008533Y1398508D01*
X-2006314Y1398693D01*
X-2004280Y1399062D01*
X-2002431Y1399432D01*
X-2000859Y1399710D01*
X-2000212Y1399895D01*
X-1999657Y1400079D01*
X-1999195Y1400172D01*
X-1998918Y1400264D01*
X-1998733Y1400357D01*
X-1998640D01*
X-1996514Y1401281D01*
X-1994572Y1402298D01*
X-1993001Y1403408D01*
X-1991614Y1404610D01*
X-1990504Y1405627D01*
X-1989765Y1406459D01*
X-1989302Y1407106D01*
X-1989117Y1407199D01*
Y1407291D01*
X-1987916Y1409233D01*
X-1986991Y1411359D01*
X-1986344Y1413393D01*
X-1985974Y1415335D01*
X-1985697Y1417091D01*
X-1985604Y1417831D01*
Y1418478D01*
X-1985512Y1418941D01*
Y1419680D01*
X-1985604Y1421992D01*
X-1985974Y1424118D01*
X-1986529Y1425875D01*
X-1987083Y1427446D01*
X-1987731Y1428648D01*
X-1988193Y1429573D01*
X-1988563Y1430128D01*
X-1988748Y1430313D01*
X-1990134Y1431792D01*
X-1991706Y1433179D01*
X-1993370Y1434288D01*
X-1995035Y1435213D01*
X-1996514Y1435952D01*
X-1997254Y1436230D01*
X-1997808Y1436415D01*
X-1998271Y1436600D01*
X-1998640Y1436785D01*
X-1998825Y1436877D01*
X-1998918D01*
X-1996976Y1445198D01*
X-1995312Y1444643D01*
X-1993833Y1444089D01*
X-1992446Y1443349D01*
X-1991059Y1442702D01*
X-1989857Y1441962D01*
X-1988748Y1441130D01*
X-1987638Y1440390D01*
X-1986714Y1439651D01*
X-1985974Y1438911D01*
X-1985234Y1438264D01*
X-1984587Y1437617D01*
X-1984125Y1437154D01*
X-1983663Y1436692D01*
X-1983385Y1436322D01*
X-1983293Y1436137D01*
X-1983200Y1436045D01*
X-1982368Y1434750D01*
X-1981536Y1433456D01*
X-1980889Y1432162D01*
X-1980334Y1430775D01*
X-1979502Y1428001D01*
X-1978947Y1425505D01*
X-1978670Y1424303D01*
X-1978577Y1423286D01*
X-1978485Y1422269D01*
X-1978393Y1421437D01*
X-1978300Y1420790D01*
Y1419865D01*
X-1978485Y1416814D01*
X-1978947Y1413855D01*
X-1979502Y1411267D01*
X-1979872Y1410065D01*
X-1980242Y1408955D01*
X-1980611Y1407938D01*
X-1980981Y1407014D01*
X-1981259Y1406274D01*
X-1981536Y1405534D01*
X-1981813Y1405072D01*
X-1981998Y1404702D01*
X-1982091Y1404425D01*
X-1982183Y1404332D01*
X-1983755Y1401836D01*
X-1985604Y1399710D01*
X-1987453Y1397861D01*
X-1989302Y1396289D01*
X-1990967Y1395087D01*
X-1991706Y1394625D01*
X-1992353Y1394255D01*
X-1992816Y1393885D01*
X-1993185Y1393700D01*
X-1993463Y1393608D01*
X-1993555Y1393515D01*
X-1996421Y1392221D01*
X-1999380Y1391296D01*
X-2002339Y1390649D01*
X-2005020Y1390187D01*
X-2006222Y1390002D01*
X-2007424Y1389909D01*
X-2008348Y1389817D01*
X-2009273D01*
X-2009920Y1389724D01*
X-2010475D01*
X-2010845D01*
X-2010937D01*
X-2014265Y1389909D01*
X-2017501Y1390279D01*
X-2020368Y1390741D01*
X-2021754Y1391111D01*
X-2022956Y1391389D01*
X-2024066Y1391666D01*
X-2025083Y1392036D01*
X-2026007Y1392313D01*
X-2026747Y1392498D01*
X-2027302Y1392775D01*
X-2027764Y1392868D01*
X-2028041Y1393053D01*
X-2028134D01*
X-2030908Y1394440D01*
X-2033404Y1396011D01*
X-2035530Y1397676D01*
X-2036362Y1398508D01*
X-2037195Y1399247D01*
X-2037934Y1399987D01*
X-2038581Y1400727D01*
X-2039136Y1401374D01*
X-2039506Y1401929D01*
X-2039876Y1402298D01*
X-2040153Y1402668D01*
X-2040246Y1402853D01*
X-2040338Y1402946D01*
X-2041078Y1404240D01*
X-2041725Y1405534D01*
X-2042742Y1408308D01*
X-2043482Y1411082D01*
X-2043944Y1413763D01*
X-2044129Y1415057D01*
X-2044314Y1416167D01*
X-2044406Y1417184D01*
Y1418016D01*
X-2044499Y1418756D01*
Y1419773D01*
X-2044406Y1421622D01*
X-2044221Y1423378D01*
X-2044036Y1425043D01*
X-2043666Y1426614D01*
X-2043204Y1428094D01*
X-2042742Y1429481D01*
X-2042280Y1430775D01*
X-2041725Y1431977D01*
X-2041263Y1432994D01*
X-2040800Y1434011D01*
X-2040338Y1434750D01*
X-2039876Y1435490D01*
X-2039506Y1435952D01*
X-2039321Y1436415D01*
X-2039136Y1436600D01*
X-2039044Y1436692D01*
X-2037934Y1437986D01*
X-2036825Y1439096D01*
X-2035530Y1440113D01*
X-2034236Y1441130D01*
X-2031647Y1442794D01*
X-2029058Y1444089D01*
X-2027856Y1444643D01*
X-2026747Y1445106D01*
X-2025730Y1445475D01*
X-2024898Y1445753D01*
X-2024158Y1446030D01*
X-2023604Y1446215D01*
X-2023234Y1446307D01*
X-2023141D01*
X-2021015Y1437802D01*
D02*
G37*
G36*
X-1754132Y1533632D02*
X-1755704Y1532708D01*
X-1757183Y1531691D01*
X-1758663Y1530489D01*
X-1759957Y1529379D01*
X-1761067Y1528270D01*
X-1761991Y1527438D01*
X-1762269Y1527068D01*
X-1762546Y1526790D01*
X-1762638Y1526698D01*
X-1762731Y1526606D01*
X-1764303Y1524664D01*
X-1765782Y1522722D01*
X-1767076Y1520873D01*
X-1768093Y1519024D01*
X-1769018Y1517452D01*
X-1769388Y1516805D01*
X-1769665Y1516250D01*
X-1769942Y1515788D01*
X-1770035Y1515418D01*
X-1770220Y1515233D01*
Y1515141D01*
X-1777801D01*
X-1777246Y1516528D01*
X-1776599Y1517915D01*
X-1775952Y1519302D01*
X-1775305Y1520596D01*
X-1774750Y1521705D01*
X-1774288Y1522630D01*
X-1773918Y1523185D01*
X-1773826Y1523277D01*
Y1523370D01*
X-1772808Y1525034D01*
X-1771791Y1526513D01*
X-1770867Y1527807D01*
X-1770035Y1528824D01*
X-1769388Y1529749D01*
X-1768833Y1530304D01*
X-1768463Y1530766D01*
X-1768371Y1530859D01*
X-1818389D01*
Y1538717D01*
X-1754132D01*
Y1533632D01*
D02*
G37*
G36*
Y1483891D02*
X-1755704Y1482966D01*
X-1757183Y1481949D01*
X-1758663Y1480747D01*
X-1759957Y1479638D01*
X-1761067Y1478528D01*
X-1761991Y1477696D01*
X-1762269Y1477326D01*
X-1762546Y1477049D01*
X-1762638Y1476957D01*
X-1762731Y1476864D01*
X-1764303Y1474923D01*
X-1765782Y1472981D01*
X-1767076Y1471132D01*
X-1768093Y1469283D01*
X-1769018Y1467711D01*
X-1769388Y1467064D01*
X-1769665Y1466509D01*
X-1769942Y1466047D01*
X-1770035Y1465677D01*
X-1770220Y1465492D01*
Y1465400D01*
X-1777801D01*
X-1777246Y1466786D01*
X-1776599Y1468173D01*
X-1775952Y1469560D01*
X-1775305Y1470855D01*
X-1774750Y1471964D01*
X-1774288Y1472889D01*
X-1773918Y1473443D01*
X-1773826Y1473536D01*
Y1473628D01*
X-1772808Y1475292D01*
X-1771791Y1476772D01*
X-1770867Y1478066D01*
X-1770035Y1479083D01*
X-1769388Y1480008D01*
X-1768833Y1480562D01*
X-1768463Y1481025D01*
X-1768371Y1481117D01*
X-1818389D01*
Y1488976D01*
X-1754132D01*
Y1483891D01*
D02*
G37*
G36*
X-1796015Y1443672D02*
X-1797494Y1443303D01*
X-1798881Y1442840D01*
X-1800175Y1442378D01*
X-1801377Y1441916D01*
X-1802487Y1441361D01*
X-1803411Y1440806D01*
X-1804336Y1440159D01*
X-1805168Y1439604D01*
X-1805908Y1439142D01*
X-1806462Y1438587D01*
X-1807017Y1438125D01*
X-1807479Y1437755D01*
X-1807757Y1437385D01*
X-1808034Y1437108D01*
X-1808127Y1437016D01*
X-1808219Y1436923D01*
X-1808959Y1435999D01*
X-1809514Y1434982D01*
X-1810531Y1432948D01*
X-1811270Y1431006D01*
X-1811732Y1429064D01*
X-1812102Y1427400D01*
X-1812195Y1426753D01*
Y1426106D01*
X-1812287Y1425551D01*
Y1424904D01*
X-1812195Y1422777D01*
X-1811825Y1420743D01*
X-1811363Y1418894D01*
X-1810808Y1417230D01*
X-1810253Y1415936D01*
X-1809976Y1415381D01*
X-1809791Y1414919D01*
X-1809606Y1414549D01*
X-1809421Y1414271D01*
X-1809329Y1414087D01*
Y1413994D01*
X-1808034Y1412237D01*
X-1806647Y1410758D01*
X-1805076Y1409464D01*
X-1803596Y1408447D01*
X-1802302Y1407615D01*
X-1801192Y1407060D01*
X-1800730Y1406875D01*
X-1800453Y1406690D01*
X-1800268Y1406598D01*
X-1800175D01*
X-1797772Y1405858D01*
X-1795368Y1405303D01*
X-1792964Y1404841D01*
X-1790745Y1404564D01*
X-1789728Y1404471D01*
X-1788803Y1404379D01*
X-1787971D01*
X-1787324Y1404286D01*
X-1786769D01*
X-1786307D01*
X-1786030D01*
X-1785937D01*
X-1783533Y1404379D01*
X-1781314Y1404564D01*
X-1779280Y1404933D01*
X-1777431Y1405303D01*
X-1775860Y1405581D01*
X-1775212Y1405766D01*
X-1774658Y1405950D01*
X-1774195Y1406043D01*
X-1773918Y1406135D01*
X-1773733Y1406228D01*
X-1773641D01*
X-1771514Y1407152D01*
X-1769573Y1408169D01*
X-1768001Y1409279D01*
X-1766614Y1410481D01*
X-1765504Y1411498D01*
X-1764765Y1412330D01*
X-1764303Y1412977D01*
X-1764118Y1413070D01*
Y1413162D01*
X-1762916Y1415104D01*
X-1761991Y1417230D01*
X-1761344Y1419264D01*
X-1760974Y1421206D01*
X-1760697Y1422962D01*
X-1760604Y1423702D01*
Y1424349D01*
X-1760512Y1424811D01*
Y1425551D01*
X-1760604Y1427863D01*
X-1760974Y1429989D01*
X-1761529Y1431746D01*
X-1762084Y1433317D01*
X-1762731Y1434519D01*
X-1763193Y1435444D01*
X-1763563Y1435999D01*
X-1763748Y1436184D01*
X-1765135Y1437663D01*
X-1766706Y1439050D01*
X-1768371Y1440159D01*
X-1770035Y1441084D01*
X-1771514Y1441823D01*
X-1772254Y1442101D01*
X-1772808Y1442286D01*
X-1773271Y1442471D01*
X-1773641Y1442655D01*
X-1773826Y1442748D01*
X-1773918D01*
X-1771976Y1451069D01*
X-1770312Y1450514D01*
X-1768833Y1449960D01*
X-1767446Y1449220D01*
X-1766059Y1448573D01*
X-1764857Y1447833D01*
X-1763748Y1447001D01*
X-1762638Y1446261D01*
X-1761714Y1445522D01*
X-1760974Y1444782D01*
X-1760234Y1444135D01*
X-1759587Y1443488D01*
X-1759125Y1443025D01*
X-1758663Y1442563D01*
X-1758385Y1442193D01*
X-1758293Y1442008D01*
X-1758200Y1441916D01*
X-1757368Y1440621D01*
X-1756536Y1439327D01*
X-1755889Y1438033D01*
X-1755334Y1436646D01*
X-1754502Y1433872D01*
X-1753947Y1431376D01*
X-1753670Y1430174D01*
X-1753578Y1429157D01*
X-1753485Y1428140D01*
X-1753393Y1427308D01*
X-1753300Y1426661D01*
Y1425736D01*
X-1753485Y1422685D01*
X-1753947Y1419726D01*
X-1754502Y1417138D01*
X-1754872Y1415936D01*
X-1755242Y1414826D01*
X-1755612Y1413809D01*
X-1755982Y1412885D01*
X-1756259Y1412145D01*
X-1756536Y1411405D01*
X-1756814Y1410943D01*
X-1756999Y1410573D01*
X-1757091Y1410296D01*
X-1757183Y1410203D01*
X-1758755Y1407707D01*
X-1760604Y1405581D01*
X-1762453Y1403732D01*
X-1764303Y1402160D01*
X-1765967Y1400958D01*
X-1766706Y1400496D01*
X-1767354Y1400126D01*
X-1767816Y1399756D01*
X-1768186Y1399571D01*
X-1768463Y1399479D01*
X-1768556Y1399386D01*
X-1771422Y1398092D01*
X-1774380Y1397167D01*
X-1777339Y1396520D01*
X-1780020Y1396058D01*
X-1781222Y1395873D01*
X-1782424Y1395780D01*
X-1783348Y1395688D01*
X-1784273D01*
X-1784920Y1395595D01*
X-1785475D01*
X-1785845D01*
X-1785937D01*
X-1789266Y1395780D01*
X-1792502Y1396150D01*
X-1795368Y1396612D01*
X-1796755Y1396982D01*
X-1797957Y1397260D01*
X-1799066Y1397537D01*
X-1800083Y1397907D01*
X-1801008Y1398184D01*
X-1801747Y1398369D01*
X-1802302Y1398646D01*
X-1802764Y1398739D01*
X-1803042Y1398924D01*
X-1803134D01*
X-1805908Y1400311D01*
X-1808404Y1401882D01*
X-1810531Y1403547D01*
X-1811363Y1404379D01*
X-1812195Y1405118D01*
X-1812934Y1405858D01*
X-1813582Y1406598D01*
X-1814136Y1407245D01*
X-1814506Y1407800D01*
X-1814876Y1408169D01*
X-1815153Y1408539D01*
X-1815246Y1408724D01*
X-1815338Y1408817D01*
X-1816078Y1410111D01*
X-1816725Y1411405D01*
X-1817742Y1414179D01*
X-1818482Y1416953D01*
X-1818944Y1419634D01*
X-1819129Y1420928D01*
X-1819314Y1422038D01*
X-1819406Y1423055D01*
Y1423887D01*
X-1819499Y1424627D01*
Y1425644D01*
X-1819406Y1427493D01*
X-1819221Y1429249D01*
X-1819036Y1430914D01*
X-1818667Y1432485D01*
X-1818204Y1433965D01*
X-1817742Y1435351D01*
X-1817280Y1436646D01*
X-1816725Y1437848D01*
X-1816263Y1438865D01*
X-1815801Y1439882D01*
X-1815338Y1440621D01*
X-1814876Y1441361D01*
X-1814506Y1441823D01*
X-1814321Y1442286D01*
X-1814136Y1442471D01*
X-1814044Y1442563D01*
X-1812934Y1443857D01*
X-1811825Y1444967D01*
X-1810531Y1445984D01*
X-1809236Y1447001D01*
X-1806647Y1448665D01*
X-1804059Y1449960D01*
X-1802857Y1450514D01*
X-1801747Y1450977D01*
X-1800730Y1451346D01*
X-1799898Y1451624D01*
X-1799158Y1451901D01*
X-1798604Y1452086D01*
X-1798234Y1452178D01*
X-1798141D01*
X-1796015Y1443672D01*
D02*
G37*
G36*
X-2047041Y2427570D02*
X-2045562D01*
X-2044083Y2427477D01*
X-2042788Y2427292D01*
X-2041494Y2427200D01*
X-2040384Y2427107D01*
X-2039367Y2426923D01*
X-2038443Y2426830D01*
X-2037611Y2426645D01*
X-2036963Y2426553D01*
X-2036409Y2426460D01*
X-2035946Y2426368D01*
X-2035669Y2426275D01*
X-2035484Y2426183D01*
X-2035392D01*
X-2033358Y2425628D01*
X-2031509Y2424981D01*
X-2029937Y2424241D01*
X-2028550Y2423687D01*
X-2027348Y2423039D01*
X-2026516Y2422670D01*
X-2026054Y2422300D01*
X-2025869Y2422207D01*
X-2024482Y2421190D01*
X-2023280Y2420173D01*
X-2022263Y2419064D01*
X-2021338Y2418047D01*
X-2020691Y2417122D01*
X-2020229Y2416383D01*
X-2019952Y2415920D01*
X-2019859Y2415828D01*
Y2415735D01*
X-2019119Y2414256D01*
X-2018657Y2412684D01*
X-2018287Y2411205D01*
X-2018010Y2409818D01*
X-2017825Y2408616D01*
X-2017733Y2407599D01*
Y2406767D01*
X-2017917Y2404271D01*
X-2018287Y2401959D01*
X-2018934Y2400018D01*
X-2019582Y2398354D01*
X-2020321Y2396967D01*
X-2020599Y2396412D01*
X-2020969Y2395950D01*
X-2021153Y2395580D01*
X-2021338Y2395303D01*
X-2021523Y2395210D01*
Y2395118D01*
X-2023003Y2393453D01*
X-2024759Y2392067D01*
X-2026516Y2390865D01*
X-2028180Y2389940D01*
X-2029752Y2389200D01*
X-2030399Y2388831D01*
X-2031046Y2388646D01*
X-2031509Y2388461D01*
X-2031878Y2388276D01*
X-2032063Y2388183D01*
X-2032156D01*
X-2033543Y2387814D01*
X-2034929Y2387444D01*
X-2037980Y2386889D01*
X-2041031Y2386427D01*
X-2043898Y2386149D01*
X-2045284Y2386057D01*
X-2046486Y2385964D01*
X-2047596D01*
X-2048613Y2385872D01*
X-2049353D01*
X-2050000D01*
X-2050370D01*
X-2050462D01*
X-2053698Y2385964D01*
X-2056749Y2386149D01*
X-2059523Y2386427D01*
X-2062111Y2386889D01*
X-2064515Y2387351D01*
X-2066642Y2387906D01*
X-2068583Y2388461D01*
X-2070248Y2389016D01*
X-2071727Y2389570D01*
X-2073021Y2390217D01*
X-2074131Y2390680D01*
X-2074963Y2391142D01*
X-2075702Y2391604D01*
X-2076165Y2391882D01*
X-2076442Y2392067D01*
X-2076535Y2392159D01*
X-2077644Y2393176D01*
X-2078661Y2394286D01*
X-2079586Y2395487D01*
X-2080325Y2396689D01*
X-2080972Y2397891D01*
X-2081527Y2399093D01*
X-2081897Y2400295D01*
X-2082267Y2401405D01*
X-2082544Y2402514D01*
X-2082729Y2403531D01*
X-2082914Y2404456D01*
X-2083007Y2405195D01*
X-2083099Y2405843D01*
Y2406767D01*
X-2082914Y2409263D01*
X-2082544Y2411575D01*
X-2081897Y2413516D01*
X-2081250Y2415181D01*
X-2080603Y2416567D01*
X-2080233Y2417030D01*
X-2079955Y2417492D01*
X-2079771Y2417862D01*
X-2079586Y2418139D01*
X-2079401Y2418232D01*
Y2418324D01*
X-2077829Y2419988D01*
X-2076165Y2421375D01*
X-2074316Y2422577D01*
X-2072651Y2423502D01*
X-2071080Y2424241D01*
X-2070432Y2424611D01*
X-2069785Y2424796D01*
X-2069323Y2424981D01*
X-2068953Y2425166D01*
X-2068768Y2425258D01*
X-2068676D01*
X-2067289Y2425721D01*
X-2065902Y2426090D01*
X-2062944Y2426645D01*
X-2059893Y2427107D01*
X-2056934Y2427385D01*
X-2055640Y2427477D01*
X-2054438Y2427570D01*
X-2053328D01*
X-2052311Y2427662D01*
X-2051571D01*
X-2050924D01*
X-2050554D01*
X-2050462D01*
X-2048705D01*
X-2047041Y2427570D01*
D02*
G37*
G36*
X-2017733Y2360632D02*
X-2019304Y2359707D01*
X-2020784Y2358690D01*
X-2022263Y2357488D01*
X-2023557Y2356379D01*
X-2024667Y2355269D01*
X-2025591Y2354437D01*
X-2025869Y2354067D01*
X-2026146Y2353790D01*
X-2026239Y2353697D01*
X-2026331Y2353605D01*
X-2027903Y2351663D01*
X-2029382Y2349722D01*
X-2030676Y2347873D01*
X-2031693Y2346024D01*
X-2032618Y2344452D01*
X-2032988Y2343805D01*
X-2033265Y2343250D01*
X-2033543Y2342788D01*
X-2033635Y2342418D01*
X-2033820Y2342233D01*
Y2342140D01*
X-2041401D01*
X-2040847Y2343527D01*
X-2040199Y2344914D01*
X-2039552Y2346301D01*
X-2038905Y2347595D01*
X-2038350Y2348705D01*
X-2037888Y2349629D01*
X-2037518Y2350184D01*
X-2037426Y2350276D01*
Y2350369D01*
X-2036409Y2352033D01*
X-2035392Y2353512D01*
X-2034467Y2354807D01*
X-2033635Y2355824D01*
X-2032988Y2356748D01*
X-2032433Y2357303D01*
X-2032063Y2357765D01*
X-2031971Y2357858D01*
X-2081989D01*
Y2365717D01*
X-2017733D01*
Y2360632D01*
D02*
G37*
G36*
X-2059615Y2320413D02*
X-2061094Y2320043D01*
X-2062481Y2319581D01*
X-2063776Y2319119D01*
X-2064978Y2318657D01*
X-2066087Y2318102D01*
X-2067012Y2317547D01*
X-2067936Y2316900D01*
X-2068768Y2316345D01*
X-2069508Y2315883D01*
X-2070063Y2315328D01*
X-2070617Y2314866D01*
X-2071080Y2314496D01*
X-2071357Y2314126D01*
X-2071634Y2313849D01*
X-2071727Y2313756D01*
X-2071819Y2313664D01*
X-2072559Y2312739D01*
X-2073114Y2311722D01*
X-2074131Y2309688D01*
X-2074870Y2307747D01*
X-2075333Y2305805D01*
X-2075702Y2304141D01*
X-2075795Y2303494D01*
Y2302847D01*
X-2075887Y2302292D01*
Y2301645D01*
X-2075795Y2299518D01*
X-2075425Y2297484D01*
X-2074963Y2295635D01*
X-2074408Y2293971D01*
X-2073853Y2292676D01*
X-2073576Y2292122D01*
X-2073391Y2291659D01*
X-2073206Y2291290D01*
X-2073021Y2291012D01*
X-2072929Y2290827D01*
Y2290735D01*
X-2071634Y2288978D01*
X-2070248Y2287499D01*
X-2068676Y2286204D01*
X-2067197Y2285187D01*
X-2065902Y2284355D01*
X-2064793Y2283801D01*
X-2064330Y2283616D01*
X-2064053Y2283431D01*
X-2063868Y2283338D01*
X-2063776D01*
X-2061372Y2282599D01*
X-2058968Y2282044D01*
X-2056564Y2281582D01*
X-2054345Y2281304D01*
X-2053328Y2281212D01*
X-2052404Y2281119D01*
X-2051571D01*
X-2050924Y2281027D01*
X-2050370D01*
X-2049907D01*
X-2049630D01*
X-2049537D01*
X-2047134Y2281119D01*
X-2044915Y2281304D01*
X-2042881Y2281674D01*
X-2041031Y2282044D01*
X-2039460Y2282321D01*
X-2038813Y2282506D01*
X-2038258Y2282691D01*
X-2037796Y2282784D01*
X-2037518Y2282876D01*
X-2037333Y2282969D01*
X-2037241D01*
X-2035114Y2283893D01*
X-2033173Y2284910D01*
X-2031601Y2286020D01*
X-2030214Y2287221D01*
X-2029105Y2288239D01*
X-2028365Y2289071D01*
X-2027903Y2289718D01*
X-2027718Y2289810D01*
Y2289903D01*
X-2026516Y2291844D01*
X-2025591Y2293971D01*
X-2024944Y2296005D01*
X-2024574Y2297946D01*
X-2024297Y2299703D01*
X-2024204Y2300443D01*
Y2301090D01*
X-2024112Y2301552D01*
Y2302292D01*
X-2024204Y2304603D01*
X-2024574Y2306730D01*
X-2025129Y2308486D01*
X-2025684Y2310058D01*
X-2026331Y2311260D01*
X-2026793Y2312185D01*
X-2027163Y2312739D01*
X-2027348Y2312924D01*
X-2028735Y2314404D01*
X-2030307Y2315790D01*
X-2031971Y2316900D01*
X-2033635Y2317824D01*
X-2035114Y2318564D01*
X-2035854Y2318841D01*
X-2036409Y2319026D01*
X-2036871Y2319211D01*
X-2037241Y2319396D01*
X-2037426Y2319489D01*
X-2037518D01*
X-2035577Y2327810D01*
X-2033912Y2327255D01*
X-2032433Y2326700D01*
X-2031046Y2325961D01*
X-2029659Y2325313D01*
X-2028457Y2324574D01*
X-2027348Y2323742D01*
X-2026239Y2323002D01*
X-2025314Y2322262D01*
X-2024574Y2321523D01*
X-2023835Y2320875D01*
X-2023187Y2320228D01*
X-2022725Y2319766D01*
X-2022263Y2319304D01*
X-2021986Y2318934D01*
X-2021893Y2318749D01*
X-2021801Y2318657D01*
X-2020969Y2317362D01*
X-2020136Y2316068D01*
X-2019489Y2314773D01*
X-2018934Y2313387D01*
X-2018102Y2310613D01*
X-2017548Y2308117D01*
X-2017270Y2306915D01*
X-2017178Y2305898D01*
X-2017085Y2304881D01*
X-2016993Y2304048D01*
X-2016900Y2303401D01*
Y2302477D01*
X-2017085Y2299426D01*
X-2017548Y2296467D01*
X-2018102Y2293878D01*
X-2018472Y2292676D01*
X-2018842Y2291567D01*
X-2019212Y2290550D01*
X-2019582Y2289625D01*
X-2019859Y2288886D01*
X-2020136Y2288146D01*
X-2020414Y2287684D01*
X-2020599Y2287314D01*
X-2020691Y2287037D01*
X-2020784Y2286944D01*
X-2022355Y2284448D01*
X-2024204Y2282321D01*
X-2026054Y2280472D01*
X-2027903Y2278900D01*
X-2029567Y2277699D01*
X-2030307Y2277236D01*
X-2030954Y2276866D01*
X-2031416Y2276497D01*
X-2031786Y2276312D01*
X-2032063Y2276219D01*
X-2032156Y2276127D01*
X-2035022Y2274832D01*
X-2037980Y2273908D01*
X-2040939Y2273261D01*
X-2043620Y2272798D01*
X-2044822Y2272613D01*
X-2046024Y2272521D01*
X-2046949Y2272429D01*
X-2047873D01*
X-2048520Y2272336D01*
X-2049075D01*
X-2049445D01*
X-2049537D01*
X-2052866Y2272521D01*
X-2056102Y2272891D01*
X-2058968Y2273353D01*
X-2060355Y2273723D01*
X-2061557Y2274000D01*
X-2062666Y2274278D01*
X-2063683Y2274647D01*
X-2064608Y2274925D01*
X-2065347Y2275110D01*
X-2065902Y2275387D01*
X-2066364Y2275480D01*
X-2066642Y2275664D01*
X-2066734D01*
X-2069508Y2277051D01*
X-2072004Y2278623D01*
X-2074131Y2280287D01*
X-2074963Y2281119D01*
X-2075795Y2281859D01*
X-2076535Y2282599D01*
X-2077182Y2283338D01*
X-2077737Y2283986D01*
X-2078106Y2284540D01*
X-2078476Y2284910D01*
X-2078754Y2285280D01*
X-2078846Y2285465D01*
X-2078938Y2285557D01*
X-2079678Y2286852D01*
X-2080325Y2288146D01*
X-2081342Y2290920D01*
X-2082082Y2293693D01*
X-2082544Y2296375D01*
X-2082729Y2297669D01*
X-2082914Y2298778D01*
X-2083007Y2299796D01*
Y2300628D01*
X-2083099Y2301367D01*
Y2302384D01*
X-2083007Y2304233D01*
X-2082822Y2305990D01*
X-2082637Y2307654D01*
X-2082267Y2309226D01*
X-2081805Y2310705D01*
X-2081342Y2312092D01*
X-2080880Y2313387D01*
X-2080325Y2314588D01*
X-2079863Y2315605D01*
X-2079401Y2316622D01*
X-2078938Y2317362D01*
X-2078476Y2318102D01*
X-2078106Y2318564D01*
X-2077921Y2319026D01*
X-2077737Y2319211D01*
X-2077644Y2319304D01*
X-2076535Y2320598D01*
X-2075425Y2321708D01*
X-2074131Y2322725D01*
X-2072836Y2323742D01*
X-2070248Y2325406D01*
X-2067659Y2326700D01*
X-2066457Y2327255D01*
X-2065347Y2327717D01*
X-2064330Y2328087D01*
X-2063498Y2328364D01*
X-2062759Y2328642D01*
X-2062204Y2328827D01*
X-2061834Y2328919D01*
X-2061742D01*
X-2059615Y2320413D01*
D02*
G37*
G36*
X-1793842Y2336464D02*
X-1801424D01*
Y2367807D01*
X-1804105Y2365588D01*
X-1806971Y2363461D01*
X-1809745Y2361612D01*
X-1812426Y2359856D01*
X-1813628Y2359116D01*
X-1814738Y2358469D01*
X-1815755Y2357822D01*
X-1816587Y2357359D01*
X-1817326Y2356989D01*
X-1817789Y2356712D01*
X-1818158Y2356527D01*
X-1818251Y2356435D01*
X-1821949Y2354586D01*
X-1825647Y2352921D01*
X-1829161Y2351535D01*
X-1830732Y2350980D01*
X-1832304Y2350425D01*
X-1833691Y2349870D01*
X-1834985Y2349501D01*
X-1836095Y2349131D01*
X-1837019Y2348853D01*
X-1837852Y2348576D01*
X-1838406Y2348391D01*
X-1838776Y2348299D01*
X-1838869D01*
X-1842659Y2347374D01*
X-1844508Y2347004D01*
X-1846173Y2346727D01*
X-1847744Y2346449D01*
X-1849316Y2346172D01*
X-1850610Y2345987D01*
X-1851905Y2345802D01*
X-1853014Y2345710D01*
X-1854031Y2345617D01*
X-1854956Y2345525D01*
X-1855696D01*
X-1856250Y2345432D01*
X-1856620D01*
X-1856897D01*
X-1856990D01*
Y2353476D01*
X-1853477Y2353753D01*
X-1850241Y2354216D01*
X-1847282Y2354678D01*
X-1845895Y2354955D01*
X-1844601Y2355233D01*
X-1843491Y2355418D01*
X-1842474Y2355695D01*
X-1841550Y2355880D01*
X-1840810Y2356065D01*
X-1840255Y2356250D01*
X-1839793Y2356342D01*
X-1839516Y2356435D01*
X-1839423D01*
X-1835170Y2357822D01*
X-1831195Y2359301D01*
X-1829253Y2360040D01*
X-1827404Y2360780D01*
X-1825740Y2361612D01*
X-1824076Y2362352D01*
X-1822596Y2362999D01*
X-1821302Y2363646D01*
X-1820192Y2364201D01*
X-1819175Y2364663D01*
X-1818343Y2365126D01*
X-1817789Y2365403D01*
X-1817419Y2365588D01*
X-1817326Y2365680D01*
X-1815385Y2366790D01*
X-1813443Y2367899D01*
X-1811686Y2369009D01*
X-1810022Y2370118D01*
X-1808543Y2371135D01*
X-1807064Y2372152D01*
X-1805769Y2373169D01*
X-1804660Y2374001D01*
X-1803550Y2374833D01*
X-1802626Y2375573D01*
X-1801886Y2376313D01*
X-1801239Y2376867D01*
X-1800684Y2377237D01*
X-1800314Y2377607D01*
X-1800129Y2377792D01*
X-1800037Y2377884D01*
X-1793842D01*
Y2336464D01*
D02*
G37*
G36*
X-1834616Y2320192D02*
X-1836095Y2319822D01*
X-1837482Y2319360D01*
X-1838776Y2318898D01*
X-1839978Y2318435D01*
X-1841088Y2317881D01*
X-1842012Y2317326D01*
X-1842937Y2316679D01*
X-1843769Y2316124D01*
X-1844508Y2315662D01*
X-1845063Y2315107D01*
X-1845618Y2314645D01*
X-1846080Y2314275D01*
X-1846357Y2313905D01*
X-1846635Y2313628D01*
X-1846727Y2313535D01*
X-1846820Y2313443D01*
X-1847559Y2312518D01*
X-1848114Y2311501D01*
X-1849131Y2309467D01*
X-1849871Y2307525D01*
X-1850333Y2305584D01*
X-1850703Y2303920D01*
X-1850795Y2303273D01*
Y2302625D01*
X-1850888Y2302071D01*
Y2301423D01*
X-1850795Y2299297D01*
X-1850426Y2297263D01*
X-1849963Y2295414D01*
X-1849409Y2293750D01*
X-1848854Y2292455D01*
X-1848576Y2291900D01*
X-1848392Y2291438D01*
X-1848207Y2291068D01*
X-1848022Y2290791D01*
X-1847929Y2290606D01*
Y2290514D01*
X-1846635Y2288757D01*
X-1845248Y2287278D01*
X-1843676Y2285983D01*
X-1842197Y2284966D01*
X-1840903Y2284134D01*
X-1839793Y2283579D01*
X-1839331Y2283394D01*
X-1839053Y2283210D01*
X-1838869Y2283117D01*
X-1838776D01*
X-1836372Y2282377D01*
X-1833968Y2281823D01*
X-1831565Y2281360D01*
X-1829346Y2281083D01*
X-1828329Y2280991D01*
X-1827404Y2280898D01*
X-1826572D01*
X-1825925Y2280806D01*
X-1825370D01*
X-1824908D01*
X-1824630D01*
X-1824538D01*
X-1822134Y2280898D01*
X-1819915Y2281083D01*
X-1817881Y2281453D01*
X-1816032Y2281823D01*
X-1814460Y2282100D01*
X-1813813Y2282285D01*
X-1813258Y2282470D01*
X-1812796Y2282562D01*
X-1812519Y2282655D01*
X-1812334Y2282747D01*
X-1812241D01*
X-1810115Y2283672D01*
X-1808173Y2284689D01*
X-1806601Y2285798D01*
X-1805215Y2287000D01*
X-1804105Y2288017D01*
X-1803365Y2288849D01*
X-1802903Y2289497D01*
X-1802718Y2289589D01*
Y2289681D01*
X-1801516Y2291623D01*
X-1800592Y2293750D01*
X-1799945Y2295784D01*
X-1799575Y2297725D01*
X-1799297Y2299482D01*
X-1799205Y2300221D01*
Y2300869D01*
X-1799112Y2301331D01*
Y2302071D01*
X-1799205Y2304382D01*
X-1799575Y2306508D01*
X-1800129Y2308265D01*
X-1800684Y2309837D01*
X-1801331Y2311039D01*
X-1801794Y2311963D01*
X-1802164Y2312518D01*
X-1802348Y2312703D01*
X-1803735Y2314182D01*
X-1805307Y2315569D01*
X-1806971Y2316679D01*
X-1808635Y2317603D01*
X-1810115Y2318343D01*
X-1810854Y2318620D01*
X-1811409Y2318805D01*
X-1811871Y2318990D01*
X-1812241Y2319175D01*
X-1812426Y2319267D01*
X-1812519D01*
X-1810577Y2327588D01*
X-1808913Y2327034D01*
X-1807434Y2326479D01*
X-1806047Y2325739D01*
X-1804660Y2325092D01*
X-1803458Y2324352D01*
X-1802348Y2323520D01*
X-1801239Y2322781D01*
X-1800314Y2322041D01*
X-1799575Y2321301D01*
X-1798835Y2320654D01*
X-1798188Y2320007D01*
X-1797726Y2319545D01*
X-1797263Y2319082D01*
X-1796986Y2318713D01*
X-1796894Y2318528D01*
X-1796801Y2318435D01*
X-1795969Y2317141D01*
X-1795137Y2315847D01*
X-1794490Y2314552D01*
X-1793935Y2313165D01*
X-1793103Y2310392D01*
X-1792548Y2307895D01*
X-1792271Y2306693D01*
X-1792178Y2305676D01*
X-1792086Y2304659D01*
X-1791993Y2303827D01*
X-1791901Y2303180D01*
Y2302255D01*
X-1792086Y2299204D01*
X-1792548Y2296246D01*
X-1793103Y2293657D01*
X-1793473Y2292455D01*
X-1793842Y2291346D01*
X-1794212Y2290329D01*
X-1794582Y2289404D01*
X-1794860Y2288664D01*
X-1795137Y2287925D01*
X-1795414Y2287463D01*
X-1795599Y2287093D01*
X-1795692Y2286815D01*
X-1795784Y2286723D01*
X-1797356Y2284227D01*
X-1799205Y2282100D01*
X-1801054Y2280251D01*
X-1802903Y2278679D01*
X-1804567Y2277477D01*
X-1805307Y2277015D01*
X-1805954Y2276645D01*
X-1806417Y2276275D01*
X-1806786Y2276090D01*
X-1807064Y2275998D01*
X-1807156Y2275906D01*
X-1810022Y2274611D01*
X-1812981Y2273687D01*
X-1815939Y2273039D01*
X-1818621Y2272577D01*
X-1819823Y2272392D01*
X-1821025Y2272300D01*
X-1821949Y2272207D01*
X-1822874D01*
X-1823521Y2272115D01*
X-1824076D01*
X-1824445D01*
X-1824538D01*
X-1827866Y2272300D01*
X-1831102Y2272670D01*
X-1833968Y2273132D01*
X-1835355Y2273502D01*
X-1836557Y2273779D01*
X-1837667Y2274056D01*
X-1838684Y2274426D01*
X-1839608Y2274704D01*
X-1840348Y2274889D01*
X-1840903Y2275166D01*
X-1841365Y2275258D01*
X-1841642Y2275443D01*
X-1841735D01*
X-1844508Y2276830D01*
X-1847005Y2278402D01*
X-1849131Y2280066D01*
X-1849963Y2280898D01*
X-1850795Y2281638D01*
X-1851535Y2282377D01*
X-1852182Y2283117D01*
X-1852737Y2283764D01*
X-1853107Y2284319D01*
X-1853477Y2284689D01*
X-1853754Y2285059D01*
X-1853846Y2285244D01*
X-1853939Y2285336D01*
X-1854679Y2286630D01*
X-1855326Y2287925D01*
X-1856343Y2290698D01*
X-1857082Y2293472D01*
X-1857545Y2296153D01*
X-1857730Y2297448D01*
X-1857914Y2298557D01*
X-1858007Y2299574D01*
Y2300406D01*
X-1858099Y2301146D01*
Y2302163D01*
X-1858007Y2304012D01*
X-1857822Y2305769D01*
X-1857637Y2307433D01*
X-1857267Y2309005D01*
X-1856805Y2310484D01*
X-1856343Y2311871D01*
X-1855880Y2313165D01*
X-1855326Y2314367D01*
X-1854863Y2315384D01*
X-1854401Y2316401D01*
X-1853939Y2317141D01*
X-1853477Y2317881D01*
X-1853107Y2318343D01*
X-1852922Y2318805D01*
X-1852737Y2318990D01*
X-1852645Y2319082D01*
X-1851535Y2320377D01*
X-1850426Y2321486D01*
X-1849131Y2322503D01*
X-1847837Y2323520D01*
X-1845248Y2325185D01*
X-1842659Y2326479D01*
X-1841457Y2327034D01*
X-1840348Y2327496D01*
X-1839331Y2327866D01*
X-1838499Y2328143D01*
X-1837759Y2328421D01*
X-1837204Y2328605D01*
X-1836835Y2328698D01*
X-1836742D01*
X-1834616Y2320192D01*
D02*
G37*
G36*
X-1634615Y2377792D02*
X-1633044Y2377607D01*
X-1631472Y2377330D01*
X-1630085Y2377052D01*
X-1628791Y2376590D01*
X-1627496Y2376128D01*
X-1626387Y2375666D01*
X-1625370Y2375111D01*
X-1624445Y2374556D01*
X-1623613Y2374094D01*
X-1622966Y2373632D01*
X-1622319Y2373169D01*
X-1621857Y2372892D01*
X-1621579Y2372615D01*
X-1621394Y2372430D01*
X-1621302Y2372337D01*
X-1620285Y2371320D01*
X-1619360Y2370211D01*
X-1618621Y2369009D01*
X-1617973Y2367899D01*
X-1617326Y2366790D01*
X-1616864Y2365680D01*
X-1616217Y2363554D01*
X-1615939Y2362629D01*
X-1615754Y2361705D01*
X-1615662Y2360965D01*
X-1615570Y2360225D01*
X-1615477Y2359671D01*
Y2358931D01*
X-1615570Y2357267D01*
X-1615847Y2355695D01*
X-1616124Y2354216D01*
X-1616494Y2352921D01*
X-1616956Y2351812D01*
X-1617234Y2350980D01*
X-1617511Y2350425D01*
X-1617604Y2350333D01*
Y2350240D01*
X-1618528Y2348761D01*
X-1619545Y2347466D01*
X-1620562Y2346265D01*
X-1621672Y2345340D01*
X-1622596Y2344508D01*
X-1623336Y2343861D01*
X-1623891Y2343491D01*
X-1623983Y2343398D01*
X-1622319D01*
X-1620655Y2343491D01*
X-1619175Y2343583D01*
X-1617696Y2343768D01*
X-1616402Y2343861D01*
X-1615200Y2344046D01*
X-1614090Y2344231D01*
X-1613073Y2344508D01*
X-1612149Y2344693D01*
X-1611409Y2344878D01*
X-1610762Y2345063D01*
X-1610207Y2345155D01*
X-1609837Y2345340D01*
X-1609560Y2345432D01*
X-1609375Y2345525D01*
X-1609283D01*
X-1607433Y2346449D01*
X-1605769Y2347374D01*
X-1604475Y2348391D01*
X-1603365Y2349316D01*
X-1602441Y2350148D01*
X-1601794Y2350795D01*
X-1601424Y2351257D01*
X-1601331Y2351442D01*
X-1600592Y2352552D01*
X-1600129Y2353661D01*
X-1599760Y2354771D01*
X-1599482Y2355880D01*
X-1599297Y2356712D01*
X-1599205Y2357452D01*
Y2358099D01*
X-1599390Y2359763D01*
X-1599760Y2361335D01*
X-1600314Y2362629D01*
X-1600869Y2363831D01*
X-1601516Y2364756D01*
X-1602071Y2365403D01*
X-1602441Y2365773D01*
X-1602626Y2365958D01*
X-1603458Y2366605D01*
X-1604475Y2367252D01*
X-1605584Y2367807D01*
X-1606694Y2368177D01*
X-1607711Y2368546D01*
X-1608543Y2368824D01*
X-1609098Y2368916D01*
X-1609190Y2369009D01*
X-1609283D01*
X-1608635Y2376867D01*
X-1606047Y2376313D01*
X-1603735Y2375481D01*
X-1601701Y2374556D01*
X-1600037Y2373539D01*
X-1598743Y2372522D01*
X-1598188Y2372152D01*
X-1597726Y2371690D01*
X-1597448Y2371413D01*
X-1597171Y2371135D01*
X-1597078Y2371043D01*
X-1596986Y2370950D01*
X-1596246Y2370026D01*
X-1595599Y2369009D01*
X-1594490Y2366975D01*
X-1593750Y2364941D01*
X-1593288Y2362999D01*
X-1592918Y2361242D01*
X-1592825Y2360503D01*
Y2359856D01*
X-1592733Y2359301D01*
Y2358561D01*
X-1592825Y2356712D01*
X-1593010Y2354955D01*
X-1593380Y2353291D01*
X-1593842Y2351719D01*
X-1594490Y2350333D01*
X-1595044Y2348946D01*
X-1595784Y2347744D01*
X-1596431Y2346634D01*
X-1597078Y2345710D01*
X-1597818Y2344785D01*
X-1598373Y2344046D01*
X-1598927Y2343491D01*
X-1599482Y2343029D01*
X-1599852Y2342659D01*
X-1600037Y2342474D01*
X-1600129Y2342381D01*
X-1601794Y2341179D01*
X-1603735Y2340162D01*
X-1605769Y2339238D01*
X-1607896Y2338406D01*
X-1610115Y2337759D01*
X-1612334Y2337204D01*
X-1614645Y2336742D01*
X-1616771Y2336372D01*
X-1618898Y2336094D01*
X-1620840Y2335909D01*
X-1622596Y2335725D01*
X-1624075Y2335632D01*
X-1625370D01*
X-1626294Y2335540D01*
X-1626664D01*
X-1626942D01*
X-1627034D01*
X-1627127D01*
X-1630085Y2335632D01*
X-1632859Y2335817D01*
X-1635448Y2336094D01*
X-1637851Y2336557D01*
X-1639978Y2337019D01*
X-1641919Y2337481D01*
X-1643676Y2338036D01*
X-1645248Y2338683D01*
X-1646542Y2339238D01*
X-1647744Y2339793D01*
X-1648669Y2340255D01*
X-1649501Y2340810D01*
X-1650148Y2341179D01*
X-1650518Y2341457D01*
X-1650795Y2341642D01*
X-1650888Y2341734D01*
X-1652182Y2342936D01*
X-1653292Y2344231D01*
X-1654216Y2345525D01*
X-1655048Y2346819D01*
X-1655788Y2348206D01*
X-1656343Y2349501D01*
X-1656805Y2350795D01*
X-1657175Y2352089D01*
X-1657452Y2353199D01*
X-1657729Y2354308D01*
X-1657914Y2355233D01*
X-1658007Y2356065D01*
Y2356805D01*
X-1658099Y2357267D01*
Y2357729D01*
X-1658007Y2359856D01*
X-1657637Y2361797D01*
X-1657267Y2363554D01*
X-1656712Y2365126D01*
X-1656250Y2366327D01*
X-1655788Y2367252D01*
X-1655695Y2367622D01*
X-1655511Y2367899D01*
X-1655418Y2367992D01*
Y2368084D01*
X-1654309Y2369656D01*
X-1653014Y2371135D01*
X-1651720Y2372337D01*
X-1650425Y2373354D01*
X-1649224Y2374186D01*
X-1648299Y2374741D01*
X-1647929Y2374926D01*
X-1647652Y2375111D01*
X-1647559Y2375203D01*
X-1647467D01*
X-1645525Y2376128D01*
X-1643491Y2376775D01*
X-1641642Y2377237D01*
X-1639885Y2377515D01*
X-1638406Y2377792D01*
X-1637851D01*
X-1637297Y2377884D01*
X-1636834D01*
X-1636557D01*
X-1636372D01*
X-1636280D01*
X-1634615Y2377792D01*
D02*
G37*
G36*
Y2320192D02*
X-1636095Y2319822D01*
X-1637482Y2319360D01*
X-1638776Y2318898D01*
X-1639978Y2318435D01*
X-1641087Y2317881D01*
X-1642012Y2317326D01*
X-1642937Y2316679D01*
X-1643769Y2316124D01*
X-1644508Y2315662D01*
X-1645063Y2315107D01*
X-1645618Y2314645D01*
X-1646080Y2314275D01*
X-1646357Y2313905D01*
X-1646635Y2313628D01*
X-1646727Y2313535D01*
X-1646820Y2313443D01*
X-1647559Y2312518D01*
X-1648114Y2311501D01*
X-1649131Y2309467D01*
X-1649871Y2307525D01*
X-1650333Y2305584D01*
X-1650703Y2303920D01*
X-1650795Y2303273D01*
Y2302625D01*
X-1650888Y2302071D01*
Y2301423D01*
X-1650795Y2299297D01*
X-1650425Y2297263D01*
X-1649963Y2295414D01*
X-1649408Y2293750D01*
X-1648854Y2292455D01*
X-1648576Y2291900D01*
X-1648391Y2291438D01*
X-1648207Y2291068D01*
X-1648022Y2290791D01*
X-1647929Y2290606D01*
Y2290514D01*
X-1646635Y2288757D01*
X-1645248Y2287278D01*
X-1643676Y2285983D01*
X-1642197Y2284966D01*
X-1640902Y2284134D01*
X-1639793Y2283579D01*
X-1639331Y2283394D01*
X-1639053Y2283210D01*
X-1638868Y2283117D01*
X-1638776D01*
X-1636372Y2282377D01*
X-1633968Y2281823D01*
X-1631564Y2281360D01*
X-1629345Y2281083D01*
X-1628328Y2280991D01*
X-1627404Y2280898D01*
X-1626572D01*
X-1625925Y2280806D01*
X-1625370D01*
X-1624908D01*
X-1624630D01*
X-1624538D01*
X-1622134Y2280898D01*
X-1619915Y2281083D01*
X-1617881Y2281453D01*
X-1616032Y2281823D01*
X-1614460Y2282100D01*
X-1613813Y2282285D01*
X-1613258Y2282470D01*
X-1612796Y2282562D01*
X-1612518Y2282655D01*
X-1612334Y2282747D01*
X-1612241D01*
X-1610115Y2283672D01*
X-1608173Y2284689D01*
X-1606601Y2285798D01*
X-1605214Y2287000D01*
X-1604105Y2288017D01*
X-1603365Y2288849D01*
X-1602903Y2289497D01*
X-1602718Y2289589D01*
Y2289681D01*
X-1601516Y2291623D01*
X-1600592Y2293750D01*
X-1599944Y2295784D01*
X-1599575Y2297725D01*
X-1599297Y2299482D01*
X-1599205Y2300221D01*
Y2300869D01*
X-1599112Y2301331D01*
Y2302071D01*
X-1599205Y2304382D01*
X-1599575Y2306508D01*
X-1600129Y2308265D01*
X-1600684Y2309837D01*
X-1601331Y2311039D01*
X-1601794Y2311963D01*
X-1602163Y2312518D01*
X-1602348Y2312703D01*
X-1603735Y2314182D01*
X-1605307Y2315569D01*
X-1606971Y2316679D01*
X-1608635Y2317603D01*
X-1610115Y2318343D01*
X-1610854Y2318620D01*
X-1611409Y2318805D01*
X-1611871Y2318990D01*
X-1612241Y2319175D01*
X-1612426Y2319267D01*
X-1612518D01*
X-1610577Y2327588D01*
X-1608913Y2327034D01*
X-1607433Y2326479D01*
X-1606047Y2325739D01*
X-1604660Y2325092D01*
X-1603458Y2324352D01*
X-1602348Y2323520D01*
X-1601239Y2322781D01*
X-1600314Y2322041D01*
X-1599575Y2321301D01*
X-1598835Y2320654D01*
X-1598188Y2320007D01*
X-1597726Y2319545D01*
X-1597263Y2319082D01*
X-1596986Y2318713D01*
X-1596893Y2318528D01*
X-1596801Y2318435D01*
X-1595969Y2317141D01*
X-1595137Y2315847D01*
X-1594490Y2314552D01*
X-1593935Y2313165D01*
X-1593103Y2310392D01*
X-1592548Y2307895D01*
X-1592271Y2306693D01*
X-1592178Y2305676D01*
X-1592086Y2304659D01*
X-1591993Y2303827D01*
X-1591901Y2303180D01*
Y2302255D01*
X-1592086Y2299204D01*
X-1592548Y2296246D01*
X-1593103Y2293657D01*
X-1593473Y2292455D01*
X-1593842Y2291346D01*
X-1594212Y2290329D01*
X-1594582Y2289404D01*
X-1594859Y2288664D01*
X-1595137Y2287925D01*
X-1595414Y2287463D01*
X-1595599Y2287093D01*
X-1595691Y2286815D01*
X-1595784Y2286723D01*
X-1597356Y2284227D01*
X-1599205Y2282100D01*
X-1601054Y2280251D01*
X-1602903Y2278679D01*
X-1604567Y2277477D01*
X-1605307Y2277015D01*
X-1605954Y2276645D01*
X-1606416Y2276275D01*
X-1606786Y2276090D01*
X-1607064Y2275998D01*
X-1607156Y2275906D01*
X-1610022Y2274611D01*
X-1612981Y2273687D01*
X-1615939Y2273039D01*
X-1618621Y2272577D01*
X-1619823Y2272392D01*
X-1621024Y2272300D01*
X-1621949Y2272207D01*
X-1622874D01*
X-1623521Y2272115D01*
X-1624075D01*
X-1624445D01*
X-1624538D01*
X-1627866Y2272300D01*
X-1631102Y2272670D01*
X-1633968Y2273132D01*
X-1635355Y2273502D01*
X-1636557Y2273779D01*
X-1637667Y2274056D01*
X-1638684Y2274426D01*
X-1639608Y2274704D01*
X-1640348Y2274889D01*
X-1640902Y2275166D01*
X-1641365Y2275258D01*
X-1641642Y2275443D01*
X-1641735D01*
X-1644508Y2276830D01*
X-1647005Y2278402D01*
X-1649131Y2280066D01*
X-1649963Y2280898D01*
X-1650795Y2281638D01*
X-1651535Y2282377D01*
X-1652182Y2283117D01*
X-1652737Y2283764D01*
X-1653107Y2284319D01*
X-1653477Y2284689D01*
X-1653754Y2285059D01*
X-1653846Y2285244D01*
X-1653939Y2285336D01*
X-1654678Y2286630D01*
X-1655326Y2287925D01*
X-1656343Y2290698D01*
X-1657082Y2293472D01*
X-1657545Y2296153D01*
X-1657729Y2297448D01*
X-1657914Y2298557D01*
X-1658007Y2299574D01*
Y2300406D01*
X-1658099Y2301146D01*
Y2302163D01*
X-1658007Y2304012D01*
X-1657822Y2305769D01*
X-1657637Y2307433D01*
X-1657267Y2309005D01*
X-1656805Y2310484D01*
X-1656343Y2311871D01*
X-1655880Y2313165D01*
X-1655326Y2314367D01*
X-1654863Y2315384D01*
X-1654401Y2316401D01*
X-1653939Y2317141D01*
X-1653477Y2317881D01*
X-1653107Y2318343D01*
X-1652922Y2318805D01*
X-1652737Y2318990D01*
X-1652644Y2319082D01*
X-1651535Y2320377D01*
X-1650425Y2321486D01*
X-1649131Y2322503D01*
X-1647837Y2323520D01*
X-1645248Y2325185D01*
X-1642659Y2326479D01*
X-1641457Y2327034D01*
X-1640348Y2327496D01*
X-1639331Y2327866D01*
X-1638499Y2328143D01*
X-1637759Y2328421D01*
X-1637204Y2328605D01*
X-1636834Y2328698D01*
X-1636742D01*
X-1634615Y2320192D01*
D02*
G37*
%LPC*%
G36*
X-2048983Y2419618D02*
X-2049815D01*
X-2050277D01*
X-2050370D01*
X-2050462D01*
X-2053328D01*
X-2055917Y2419434D01*
X-2058228Y2419249D01*
X-2060447Y2419064D01*
X-2062296Y2418786D01*
X-2064053Y2418417D01*
X-2065532Y2418047D01*
X-2066919Y2417769D01*
X-2068029Y2417400D01*
X-2068953Y2417030D01*
X-2069785Y2416752D01*
X-2070432Y2416383D01*
X-2070895Y2416198D01*
X-2071172Y2416013D01*
X-2071357Y2415828D01*
X-2071450D01*
X-2072374Y2415088D01*
X-2073114Y2414348D01*
X-2073853Y2413609D01*
X-2074408Y2412869D01*
X-2075333Y2411297D01*
X-2075980Y2409911D01*
X-2076350Y2408616D01*
X-2076535Y2407692D01*
X-2076627Y2407322D01*
Y2406767D01*
X-2076535Y2405750D01*
X-2076442Y2404826D01*
X-2075795Y2403069D01*
X-2074963Y2401497D01*
X-2074038Y2400110D01*
X-2073114Y2399093D01*
X-2072282Y2398261D01*
X-2071634Y2397799D01*
X-2071542Y2397614D01*
X-2071450D01*
X-2070340Y2396967D01*
X-2069046Y2396412D01*
X-2067566Y2395857D01*
X-2065995Y2395487D01*
X-2064330Y2395118D01*
X-2062574Y2394840D01*
X-2058968Y2394378D01*
X-2057304Y2394193D01*
X-2055732Y2394101D01*
X-2054253Y2394008D01*
X-2053051D01*
X-2051941Y2393916D01*
X-2051109D01*
X-2050647D01*
X-2050462D01*
X-2047596Y2394008D01*
X-2045007Y2394101D01*
X-2042603Y2394286D01*
X-2040384Y2394563D01*
X-2038443Y2394840D01*
X-2036686Y2395210D01*
X-2035114Y2395580D01*
X-2033727Y2395950D01*
X-2032526Y2396320D01*
X-2031509Y2396597D01*
X-2030676Y2396967D01*
X-2029937Y2397244D01*
X-2029474Y2397521D01*
X-2029105Y2397706D01*
X-2028920Y2397891D01*
X-2028827D01*
X-2027995Y2398539D01*
X-2027256Y2399186D01*
X-2026701Y2399925D01*
X-2026146Y2400665D01*
X-2025314Y2402144D01*
X-2024759Y2403531D01*
X-2024482Y2404733D01*
X-2024297Y2405750D01*
X-2024204Y2406120D01*
Y2406675D01*
X-2024297Y2407692D01*
X-2024389Y2408709D01*
X-2024667Y2409633D01*
X-2025037Y2410465D01*
X-2025869Y2412037D01*
X-2026793Y2413424D01*
X-2027810Y2414441D01*
X-2028642Y2415273D01*
X-2029012Y2415550D01*
X-2029290Y2415735D01*
X-2029382Y2415920D01*
X-2029474D01*
X-2030584Y2416567D01*
X-2031878Y2417122D01*
X-2033358Y2417677D01*
X-2034929Y2418047D01*
X-2036594Y2418417D01*
X-2038350Y2418694D01*
X-2041864Y2419156D01*
X-2043620Y2419341D01*
X-2045192Y2419434D01*
X-2046671Y2419526D01*
X-2047873D01*
X-2048983Y2419618D01*
D02*
G37*
G36*
X-1636095Y2369841D02*
X-1636465D01*
X-1636650D01*
X-1636742D01*
X-1639238Y2369656D01*
X-1641365Y2369286D01*
X-1643214Y2368731D01*
X-1644786Y2368084D01*
X-1645988Y2367345D01*
X-1646912Y2366790D01*
X-1647467Y2366420D01*
X-1647559Y2366235D01*
X-1647652D01*
X-1648391Y2365588D01*
X-1648946Y2364848D01*
X-1649963Y2363369D01*
X-1650610Y2361890D01*
X-1651165Y2360595D01*
X-1651442Y2359393D01*
X-1651535Y2358469D01*
X-1651627Y2358099D01*
Y2357637D01*
X-1651535Y2356342D01*
X-1651350Y2355140D01*
X-1650980Y2354031D01*
X-1650610Y2353106D01*
X-1650333Y2352274D01*
X-1649963Y2351627D01*
X-1649778Y2351257D01*
X-1649686Y2351072D01*
X-1648854Y2349963D01*
X-1648022Y2349038D01*
X-1647005Y2348206D01*
X-1646172Y2347559D01*
X-1645340Y2347004D01*
X-1644693Y2346634D01*
X-1644231Y2346357D01*
X-1644046Y2346265D01*
X-1642659Y2345710D01*
X-1641272Y2345340D01*
X-1639978Y2344970D01*
X-1638776Y2344785D01*
X-1637759Y2344693D01*
X-1636927Y2344600D01*
X-1636465D01*
X-1636280D01*
X-1634061Y2344785D01*
X-1632119Y2345155D01*
X-1630363Y2345802D01*
X-1628976Y2346449D01*
X-1627774Y2347097D01*
X-1626942Y2347744D01*
X-1626479Y2348114D01*
X-1626294Y2348299D01*
X-1625000Y2349778D01*
X-1624075Y2351257D01*
X-1623336Y2352829D01*
X-1622874Y2354216D01*
X-1622596Y2355510D01*
X-1622504Y2356435D01*
X-1622411Y2356805D01*
Y2357359D01*
X-1622596Y2359301D01*
X-1623058Y2361058D01*
X-1623613Y2362537D01*
X-1624353Y2363831D01*
X-1625093Y2364848D01*
X-1625647Y2365588D01*
X-1626110Y2366050D01*
X-1626294Y2366235D01*
X-1627866Y2367437D01*
X-1629530Y2368362D01*
X-1631287Y2369009D01*
X-1632951Y2369379D01*
X-1634431Y2369656D01*
X-1635078Y2369748D01*
X-1635632D01*
X-1636095Y2369841D01*
D02*
G37*
%LPD*%
D54*
X-1702249Y2035933D02*
Y2210933D01*
X-1531949Y2035400D02*
Y2210400D01*
X-1905449Y2035933D02*
Y2210933D01*
X-1735149Y2035400D02*
Y2210400D01*
X-2121149Y2035933D02*
Y2210933D01*
X-1950849Y2035400D02*
Y2210400D01*
X-1714300Y1128525D02*
Y1303525D01*
X-1884600Y1129058D02*
Y1304058D01*
X-1930000Y1129159D02*
Y1304159D01*
X-2100300Y1129692D02*
Y1304693D01*
%TF.MD5,49183f25e251c4e57796187ad3db857d*%
M02*
