%TF.GenerationSoftware,Altium Limited,Altium Designer,25.8.1 (18)*%
G04 Layer_Color=16711935*
%FSLAX45Y45*%
%MOMM*%
%TF.SameCoordinates,4B4E9196-B09D-4EE5-9484-0C836E35D90A*%
%TF.FilePolarity,Negative*%
%TF.FileFunction,Soldermask,Bot*%
%TF.Part,Single*%
G01*
G75*
%TA.AperFunction,SMDPad,CuDef*%
%ADD14R,0.75000X0.90000*%
%ADD15R,0.90000X0.75000*%
%TA.AperFunction,ComponentPad*%
%ADD86O,2.70320X1.95320*%
%ADD87C,2.20320*%
%ADD88O,1.95320X2.70320*%
%TA.AperFunction,ViaPad*%
%ADD89C,5.20320*%
%ADD90C,0.65320*%
D14*
X-2669991Y2060028D02*
D03*
X-2670000Y1830000D02*
D03*
X-2550000D02*
D03*
X-2549992Y2060028D02*
D03*
D15*
X-2015000Y1276659D02*
D03*
X-1799300Y1276025D02*
D03*
X-2035849Y2182900D02*
D03*
X-1820149D02*
D03*
X-4030000Y2000000D02*
D03*
Y1880000D02*
D03*
X-1820149Y2062900D02*
D03*
X-2035849D02*
D03*
X-1799300Y1156025D02*
D03*
X-2015000Y1156659D02*
D03*
D86*
X-4330000Y3125000D02*
D03*
Y4325000D02*
D03*
Y4575000D02*
D03*
Y3375000D02*
D03*
D87*
X-4250000Y1096000D02*
D03*
Y1350000D02*
D03*
Y1604000D02*
D03*
Y1858000D02*
D03*
D88*
X-2850000Y500000D02*
D03*
X-3100000D02*
D03*
X-3350000D02*
D03*
X-3600000D02*
D03*
D89*
X-4550000Y5870000D02*
D03*
Y250000D02*
D03*
X-257500Y252500D02*
D03*
Y5872500D02*
D03*
D90*
X-2580000Y3460000D02*
D03*
X-1930000Y2280000D02*
D03*
%TF.MD5,1ac086cb2df6911da644195457eb902f*%
M02*
