%TF.GenerationSoftware,Altium Limited,Altium Designer,25.8.1 (18)*%
G04 Layer_Color=8388736*
%FSLAX45Y45*%
%MOMM*%
%TF.SameCoordinates,F231EB36-2055-4CEA-98A4-6A383FAB9A67*%
%TF.FilePolarity,Negative*%
%TF.FileFunction,Soldermask,Top*%
%TF.Part,Single*%
G01*
G75*
%TA.AperFunction,SMDPad,CuDef*%
%ADD10R,0.75000X0.90000*%
%ADD22R,2.50000X1.50000*%
%ADD23R,7.00000X7.00000*%
G04:AMPARAMS|DCode=24|XSize=1.80524mm|YSize=0.61213mm|CornerRadius=0.30606mm|HoleSize=0mm|Usage=FLASHONLY|Rotation=270.000|XOffset=0mm|YOffset=0mm|HoleType=Round|Shape=RoundedRectangle|*
%AMROUNDEDRECTD24*
21,1,1.80524,0.00000,0,0,270.0*
21,1,1.19311,0.61213,0,0,270.0*
1,1,0.61213,0.00000,-0.59655*
1,1,0.61213,0.00000,0.59655*
1,1,0.61213,0.00000,0.59655*
1,1,0.61213,0.00000,-0.59655*
%
%ADD24ROUNDEDRECTD24*%
%ADD25R,0.61213X1.80524*%
%ADD26R,1.90464X3.45620*%
%ADD27R,1.30000X1.60000*%
%ADD36R,0.90000X0.75000*%
%ADD61R,1.64320X1.68320*%
%ADD62O,1.75320X0.45320*%
%ADD63O,0.45320X1.75320*%
G04:AMPARAMS|DCode=64|XSize=1.5732mm|YSize=0.7932mm|CornerRadius=0.2491mm|HoleSize=0mm|Usage=FLASHONLY|Rotation=90.000|XOffset=0mm|YOffset=0mm|HoleType=Round|Shape=RoundedRectangle|*
%AMROUNDEDRECTD64*
21,1,1.57320,0.29500,0,0,90.0*
21,1,1.07500,0.79320,0,0,90.0*
1,1,0.49820,0.14750,0.53750*
1,1,0.49820,0.14750,-0.53750*
1,1,0.49820,-0.14750,-0.53750*
1,1,0.49820,-0.14750,0.53750*
%
%ADD64ROUNDEDRECTD64*%
G04:AMPARAMS|DCode=65|XSize=2.1732mm|YSize=0.8032mm|CornerRadius=0.1766mm|HoleSize=0mm|Usage=FLASHONLY|Rotation=90.000|XOffset=0mm|YOffset=0mm|HoleType=Round|Shape=RoundedRectangle|*
%AMROUNDEDRECTD65*
21,1,2.17320,0.45000,0,0,90.0*
21,1,1.82000,0.80320,0,0,90.0*
1,1,0.35320,0.22500,0.91000*
1,1,0.35320,0.22500,-0.91000*
1,1,0.35320,-0.22500,-0.91000*
1,1,0.35320,-0.22500,0.91000*
%
%ADD65ROUNDEDRECTD65*%
%ADD66R,3.50520X2.61620*%
%ADD67R,1.05320X1.80320*%
%ADD68R,0.85400X1.10400*%
%ADD69R,1.42320X0.60320*%
%ADD70R,1.00320X1.00320*%
%ADD71R,0.80320X0.70320*%
G04:AMPARAMS|DCode=72|XSize=0.4532mm|YSize=1.3532mm|CornerRadius=0.1516mm|HoleSize=0mm|Usage=FLASHONLY|Rotation=180.000|XOffset=0mm|YOffset=0mm|HoleType=Round|Shape=RoundedRectangle|*
%AMROUNDEDRECTD72*
21,1,0.45320,1.05000,0,0,180.0*
21,1,0.15000,1.35320,0,0,180.0*
1,1,0.30320,-0.07500,0.52500*
1,1,0.30320,0.07500,0.52500*
1,1,0.30320,0.07500,-0.52500*
1,1,0.30320,-0.07500,-0.52500*
%
%ADD72ROUNDEDRECTD72*%
G04:AMPARAMS|DCode=73|XSize=0.8532mm|YSize=1.4032mm|CornerRadius=0.15035mm|HoleSize=0mm|Usage=FLASHONLY|Rotation=0.000|XOffset=0mm|YOffset=0mm|HoleType=Round|Shape=RoundedRectangle|*
%AMROUNDEDRECTD73*
21,1,0.85320,1.10250,0,0,0.0*
21,1,0.55250,1.40320,0,0,0.0*
1,1,0.30070,0.27625,-0.55125*
1,1,0.30070,-0.27625,-0.55125*
1,1,0.30070,-0.27625,0.55125*
1,1,0.30070,0.27625,0.55125*
%
%ADD73ROUNDEDRECTD73*%
%ADD74R,1.20320X1.25320*%
%ADD75R,1.10320X1.05320*%
%ADD76R,1.10320X1.00320*%
%ADD77R,2.00320X2.20320*%
%ADD78R,1.00320X1.00320*%
%ADD79R,1.50320X1.75320*%
%ADD80R,1.05320X1.10320*%
%ADD81R,0.70320X0.80320*%
G04:AMPARAMS|DCode=82|XSize=0.8532mm|YSize=1.4032mm|CornerRadius=0.15035mm|HoleSize=0mm|Usage=FLASHONLY|Rotation=90.000|XOffset=0mm|YOffset=0mm|HoleType=Round|Shape=RoundedRectangle|*
%AMROUNDEDRECTD82*
21,1,0.85320,1.10250,0,0,90.0*
21,1,0.55250,1.40320,0,0,90.0*
1,1,0.30070,0.55125,0.27625*
1,1,0.30070,0.55125,-0.27625*
1,1,0.30070,-0.55125,-0.27625*
1,1,0.30070,-0.55125,0.27625*
%
%ADD82ROUNDEDRECTD82*%
%ADD83R,1.10400X0.85400*%
%ADD84C,1.00320*%
%TA.AperFunction,ComponentPad*%
%ADD85O,1.95320X2.70320*%
%ADD86O,2.70320X1.95320*%
%ADD87C,2.20320*%
%TA.AperFunction,ViaPad*%
%ADD88C,5.20320*%
D10*
X-4190000Y5630000D02*
D03*
X-4070000D02*
D03*
X-2690000Y3990000D02*
D03*
X-2810000D02*
D03*
X-627499Y2532500D02*
D03*
X-507500D02*
D03*
X-1757500Y3300000D02*
D03*
X-1637500D02*
D03*
X-2265000Y850000D02*
D03*
X-2385000D02*
D03*
D22*
X-639999Y5010000D02*
D03*
Y4550000D02*
D03*
D23*
X-1329999Y4780000D02*
D03*
D24*
X-3075000Y2547451D02*
D03*
X-3170001Y2777547D02*
D03*
X-3265001D02*
D03*
Y2547451D02*
D03*
D25*
X-3075000Y2777547D02*
D03*
D26*
X-1017422Y5560000D02*
D03*
X-1562578D02*
D03*
X-1425000Y4075000D02*
D03*
X-1970157D02*
D03*
D27*
X-3372500Y2062500D02*
D03*
X-3142500Y1682500D02*
D03*
Y2062500D02*
D03*
X-3372500Y1682500D02*
D03*
D36*
X-3940000Y4990000D02*
D03*
Y5110000D02*
D03*
X-3210000Y4010000D02*
D03*
Y3890000D02*
D03*
X-4050000Y5490000D02*
D03*
Y5370000D02*
D03*
X-3495401Y2765182D02*
D03*
Y2645182D02*
D03*
X-2844600Y2543451D02*
D03*
Y2663451D02*
D03*
X-1325000Y2885000D02*
D03*
Y2765000D02*
D03*
X-3212100Y3487861D02*
D03*
Y3607861D02*
D03*
D61*
X-3313500Y4380000D02*
D03*
X-3746500D02*
D03*
X-3213500Y5600000D02*
D03*
X-3646500D02*
D03*
D62*
X-1765000Y1577500D02*
D03*
Y1827500D02*
D03*
Y1777500D02*
D03*
Y1727500D02*
D03*
Y1677500D02*
D03*
Y1527500D02*
D03*
Y1477500D02*
D03*
Y1427500D02*
D03*
X-2570000D02*
D03*
Y1477500D02*
D03*
Y1527500D02*
D03*
Y1577500D02*
D03*
Y1627500D02*
D03*
Y1677500D02*
D03*
Y1727500D02*
D03*
Y1777500D02*
D03*
Y1977500D02*
D03*
X-1765000Y1627500D02*
D03*
X-2570000Y1877500D02*
D03*
Y1927500D02*
D03*
Y1827500D02*
D03*
X-1765000Y1877500D02*
D03*
Y1977500D02*
D03*
Y1927500D02*
D03*
D63*
X-2342500Y2105000D02*
D03*
X-2292500D02*
D03*
X-2092500D02*
D03*
X-2042500D02*
D03*
X-1992500D02*
D03*
X-1942500D02*
D03*
X-1992500Y1300000D02*
D03*
X-2042500D02*
D03*
X-2292500D02*
D03*
X-2342500D02*
D03*
X-2392500D02*
D03*
X-2442500D02*
D03*
X-2142500Y2105000D02*
D03*
X-2092500Y1300000D02*
D03*
X-2242500Y2105000D02*
D03*
X-2192500Y1300000D02*
D03*
X-1892500Y2105000D02*
D03*
X-2142500Y1300000D02*
D03*
X-2242500D02*
D03*
X-2192500Y2105000D02*
D03*
X-1892500Y1300000D02*
D03*
X-2442500Y2105000D02*
D03*
X-2392500D02*
D03*
X-1942500Y1300000D02*
D03*
D64*
X-3564999Y4903000D02*
D03*
X-3754999Y5137000D02*
D03*
Y4903000D02*
D03*
X-3659999D02*
D03*
X-3564999Y5137000D02*
D03*
X-3659999D02*
D03*
D65*
X-3424500Y4007500D02*
D03*
X-3678500Y3512500D02*
D03*
Y4007500D02*
D03*
X-3551500D02*
D03*
X-3424500Y3512500D02*
D03*
X-3805500Y4007500D02*
D03*
Y3512500D02*
D03*
X-3551500D02*
D03*
D66*
X-3615000Y3760000D02*
D03*
D67*
X-4380000Y3804429D02*
D03*
X-4115000D02*
D03*
D68*
X-4509648Y5467700D02*
D03*
X-4654648D02*
D03*
D69*
X-2811000Y4337500D02*
D03*
Y4207500D02*
D03*
X-2549000Y4142500D02*
D03*
Y4207500D02*
D03*
Y4272500D02*
D03*
X-2811000D02*
D03*
X-2549000Y4337500D02*
D03*
X-2811000Y4142500D02*
D03*
D70*
X-2270000Y5810000D02*
D03*
Y5960000D02*
D03*
X-2450400Y5810000D02*
D03*
Y5960000D02*
D03*
D71*
X-2244600Y625000D02*
D03*
Y475000D02*
D03*
X-3880000Y5345000D02*
D03*
Y5495000D02*
D03*
X-2613300Y5929820D02*
D03*
Y5779820D02*
D03*
X-2107100Y5931993D02*
D03*
Y5781993D02*
D03*
X-825000Y2670000D02*
D03*
Y2520000D02*
D03*
X-340000Y2675000D02*
D03*
Y2525000D02*
D03*
X-724311Y1747100D02*
D03*
Y1897100D02*
D03*
X-2290000Y2320000D02*
D03*
Y2470000D02*
D03*
X-2090026Y1132100D02*
D03*
Y982100D02*
D03*
X-1770710Y3475400D02*
D03*
Y3625400D02*
D03*
X-1625224D02*
D03*
Y3475400D02*
D03*
X-1953801Y475000D02*
D03*
Y625000D02*
D03*
X-2099201D02*
D03*
Y475000D02*
D03*
X-2390000Y475000D02*
D03*
Y625000D02*
D03*
D72*
X-1722579Y2682500D02*
D03*
X-1672579D02*
D03*
X-1622579D02*
D03*
X-1672579Y3107500D02*
D03*
X-1722579D02*
D03*
X-1622579D02*
D03*
X-1522579Y2682500D02*
D03*
X-1572579D02*
D03*
X-1522579Y3107500D02*
D03*
X-1572579D02*
D03*
D73*
X-505000Y2980000D02*
D03*
X-695000D02*
D03*
X-505000Y3275000D02*
D03*
X-695000D02*
D03*
X-600000D02*
D03*
D74*
X-2957100Y1763438D02*
D03*
Y1613438D02*
D03*
X-2957100Y1958903D02*
D03*
Y2108903D02*
D03*
D75*
X-300000Y3035000D02*
D03*
Y2915000D02*
D03*
D76*
X-900000Y2937500D02*
D03*
Y3062500D02*
D03*
X-1291275Y1499437D02*
D03*
Y1374437D02*
D03*
X-1024575Y1499437D02*
D03*
Y1374437D02*
D03*
D77*
X-3065000Y4815000D02*
D03*
Y5265000D02*
D03*
D78*
X-4260000Y5160000D02*
D03*
X-4500000Y5255000D02*
D03*
Y5065000D02*
D03*
X-4025000Y2380400D02*
D03*
X-4175000D02*
D03*
X-4025000Y2200000D02*
D03*
X-4175000D02*
D03*
D79*
X-2400000Y4600000D02*
D03*
Y5395000D02*
D03*
X-1950000D02*
D03*
Y4600000D02*
D03*
D80*
X-310000Y3275000D02*
D03*
X-190000D02*
D03*
D81*
X-3675000Y3310000D02*
D03*
X-3525000D02*
D03*
X-3750676Y5343407D02*
D03*
X-3600676D02*
D03*
X-1293675Y1626437D02*
D03*
X-1443675D02*
D03*
X-1176975D02*
D03*
X-1026975D02*
D03*
X-3844800Y2380400D02*
D03*
X-3694800D02*
D03*
X-3844800Y2200000D02*
D03*
X-3694800D02*
D03*
X-3950000Y1550000D02*
D03*
X-3800000D02*
D03*
X-3950000Y1404600D02*
D03*
X-3800000D02*
D03*
X-1899994Y2944920D02*
D03*
X-2049994D02*
D03*
X-1900012Y2799521D02*
D03*
X-2050013D02*
D03*
X-538424Y1892100D02*
D03*
X-388423D02*
D03*
D82*
X-417500Y2277500D02*
D03*
X-712500D02*
D03*
X-417500Y2087500D02*
D03*
X-712500D02*
D03*
Y2182500D02*
D03*
D83*
X-4640000Y5097500D02*
D03*
Y5242500D02*
D03*
D84*
X-1890000Y3630000D02*
D03*
X-1510000D02*
D03*
D85*
X-3100000Y500000D02*
D03*
X-3350000D02*
D03*
X-3600000D02*
D03*
X-2850000D02*
D03*
D86*
X-4330000Y4575000D02*
D03*
Y4325000D02*
D03*
Y3375000D02*
D03*
Y3125000D02*
D03*
D87*
X-4250000Y1350000D02*
D03*
Y1604000D02*
D03*
Y1858000D02*
D03*
Y1096000D02*
D03*
D88*
X-4550000Y5870000D02*
D03*
Y250000D02*
D03*
X-257500Y252500D02*
D03*
Y5872500D02*
D03*
%TF.MD5,19eb893ddec0801ca052e521902ada04*%
M02*
