%TF.GenerationSoftware,Altium Limited,Altium Designer,25.8.1 (18)*%
G04 Layer_Color=0*
%FSLAX45Y45*%
%MOMM*%
%TF.SameCoordinates,E56288D2-CEBC-47D0-9147-D9EE581E70AB*%
%TF.FilePolarity,Positive*%
%TF.FileFunction,Plated,1,4,PTH,Drill*%
%TF.Part,Single*%
G01*
G75*
%TA.AperFunction,ComponentDrill*%
%ADD89C,0.90000*%
%ADD90C,1.00000*%
%ADD91C,1.10000*%
%ADD92C,1.10000*%
%TA.AperFunction,OtherDrill,Pad Free-7 (-45.5mm,58.7mm)*%
%ADD93C,2.50000*%
%TA.AperFunction,OtherDrill,Pad Free-6 (-45.5mm,2.5mm)*%
%ADD94C,2.50000*%
%TA.AperFunction,OtherDrill,Pad Free-5 (-2.575mm,2.525mm)*%
%ADD95C,2.50000*%
%TA.AperFunction,OtherDrill,Pad Free-4 (-2.575mm,58.725mm)*%
%ADD96C,2.50000*%
%TA.AperFunction,ViaDrill,NotFilled*%
%ADD97C,0.20000*%
%ADD98C,0.40000*%
%ADD99C,0.30000*%
D89*
X-3100000Y500000D02*
D03*
X-3350000D02*
D03*
X-3600000D02*
D03*
X-2850000D02*
D03*
D90*
X-4330000Y4575000D02*
D03*
Y4325000D02*
D03*
Y3375000D02*
D03*
Y3125000D02*
D03*
D91*
X-4250000Y1350000D02*
D03*
Y1096000D02*
D03*
D92*
Y1604000D02*
D03*
Y1858000D02*
D03*
D93*
X-4550000Y5870000D02*
D03*
D94*
Y250000D02*
D03*
D95*
X-257500Y252500D02*
D03*
D96*
Y5872500D02*
D03*
D97*
X-4650000Y5550000D02*
D03*
X-2450000Y4200000D02*
D03*
X-2100000Y4450000D02*
D03*
X-2298849Y1942992D02*
D03*
X-1589722Y1962967D02*
D03*
X-1644359Y1935185D02*
D03*
X-875000Y2250000D02*
D03*
X-575000Y2150000D02*
D03*
Y2225000D02*
D03*
X-850000Y3175000D02*
D03*
X-950000D02*
D03*
X-325000Y1825000D02*
D03*
X-300000Y1875000D02*
D03*
X-875000Y2100000D02*
D03*
X-850000Y2175000D02*
D03*
X-1024575Y1374437D02*
D03*
X-1291275D02*
D03*
X-1025000Y1300000D02*
D03*
X-1300000D02*
D03*
X-950000Y1775000D02*
D03*
X-1075000D02*
D03*
X-1200000D02*
D03*
X-1325000D02*
D03*
X-1450000D02*
D03*
X-2290000Y2660000D02*
D03*
Y2580000D02*
D03*
X-2439061Y765246D02*
D03*
X-2379502Y764030D02*
D03*
X-2250000Y300000D02*
D03*
X-2100000D02*
D03*
Y400000D02*
D03*
X-3170000Y3010000D02*
D03*
Y2930000D02*
D03*
X-3940000Y3385000D02*
D03*
Y3510000D02*
D03*
Y3635000D02*
D03*
X-1650000Y1275000D02*
D03*
Y1350000D02*
D03*
X-1300000Y3225000D02*
D03*
X-1570236Y3206322D02*
D03*
X-3900000Y1775000D02*
D03*
Y1875000D02*
D03*
X-2825000Y2025000D02*
D03*
Y2100000D02*
D03*
X-2760000Y2730000D02*
D03*
X-2400000Y2920000D02*
D03*
X-2320000D02*
D03*
X-2875000Y1450000D02*
D03*
X-3520000Y1730000D02*
D03*
Y1630000D02*
D03*
X-3175000Y2250000D02*
D03*
X-3275000D02*
D03*
X-3900000Y2075000D02*
D03*
X-1958529Y992225D02*
D03*
X-2019268Y993415D02*
D03*
X-1725000Y1350000D02*
D03*
X-1944229Y1428195D02*
D03*
X-3500000Y2550000D02*
D03*
X-3900000Y1975000D02*
D03*
X-2775000Y1450000D02*
D03*
X-2975000D02*
D03*
X-3075000Y2250000D02*
D03*
X-3520000Y1830000D02*
D03*
X-1225000Y2675000D02*
D03*
Y2750000D02*
D03*
Y2825000D02*
D03*
X-600000Y3475000D02*
D03*
Y3400000D02*
D03*
X-175000Y3375000D02*
D03*
Y3525000D02*
D03*
Y3450000D02*
D03*
X-300000Y2825000D02*
D03*
X-375000D02*
D03*
X-3580000Y2550000D02*
D03*
X-2760000Y2660000D02*
D03*
X-3530000Y3240000D02*
D03*
X-2391731Y1995602D02*
D03*
X-2344873Y1970607D02*
D03*
X-1944229Y1486057D02*
D03*
X-3770000Y410000D02*
D03*
Y500000D02*
D03*
Y590000D02*
D03*
X-4240000Y2060000D02*
D03*
X-4150000D02*
D03*
X-4320000D02*
D03*
X-2930000Y4140000D02*
D03*
Y4060000D02*
D03*
Y3980000D02*
D03*
X-3460000Y3240000D02*
D03*
X-3290000Y3760000D02*
D03*
X-3210000D02*
D03*
X-3130000D02*
D03*
X-3670000Y5250000D02*
D03*
X-3510000Y5370000D02*
D03*
X-3660000Y5350000D02*
D03*
X-4050000Y5280000D02*
D03*
X-3970000Y5230000D02*
D03*
X-3870000D02*
D03*
X-4380000Y5360000D02*
D03*
X-4250000D02*
D03*
Y5490000D02*
D03*
X-4380000D02*
D03*
X-4030000Y5890000D02*
D03*
X-3870000D02*
D03*
X-3530000D02*
D03*
X-3690000D02*
D03*
X-3200000D02*
D03*
X-3360000D02*
D03*
X-2850000D02*
D03*
X-3010000D02*
D03*
X-1620000Y5900000D02*
D03*
X-1780000D02*
D03*
X-1280000D02*
D03*
X-1440000D02*
D03*
X-910000D02*
D03*
X-1070000D02*
D03*
X-2090000Y5640000D02*
D03*
X-2250000D02*
D03*
X-2950000Y3690000D02*
D03*
Y3550000D02*
D03*
X-1990000D02*
D03*
Y3690000D02*
D03*
X-2150000D02*
D03*
Y3550000D02*
D03*
X-2950000Y3340000D02*
D03*
Y3200000D02*
D03*
X-1990000D02*
D03*
Y3340000D02*
D03*
X-2150000D02*
D03*
Y3200000D02*
D03*
X-4340000Y2700000D02*
D03*
Y2840000D02*
D03*
X-4150000D02*
D03*
Y2700000D02*
D03*
X-3640000D02*
D03*
Y2840000D02*
D03*
Y3000000D02*
D03*
Y3140000D02*
D03*
X-4150000D02*
D03*
Y3000000D02*
D03*
X-240000Y4200000D02*
D03*
Y4340000D02*
D03*
X-400000D02*
D03*
Y4200000D02*
D03*
X-240000Y3850000D02*
D03*
Y3990000D02*
D03*
X-400000D02*
D03*
Y3850000D02*
D03*
X-240000Y3550000D02*
D03*
Y3690000D02*
D03*
X-400000D02*
D03*
Y3550000D02*
D03*
X-1240000D02*
D03*
Y3690000D02*
D03*
X-1400000D02*
D03*
Y3550000D02*
D03*
X-1240000Y3300000D02*
D03*
Y3440000D02*
D03*
X-1400000D02*
D03*
Y3300000D02*
D03*
X-4190000Y4000000D02*
D03*
Y4140000D02*
D03*
X-4350000D02*
D03*
Y4000000D02*
D03*
X-4650000Y4140000D02*
D03*
Y4000000D02*
D03*
Y3800000D02*
D03*
Y3600000D02*
D03*
Y3400000D02*
D03*
X-650000Y4350000D02*
D03*
Y4150000D02*
D03*
Y3950000D02*
D03*
X-850000Y3800000D02*
D03*
X-1050000Y3700000D02*
D03*
X-100000Y5500000D02*
D03*
Y5250000D02*
D03*
Y5000000D02*
D03*
Y4700000D02*
D03*
X-3600000Y4500000D02*
D03*
X-3750000D02*
D03*
X-3900000D02*
D03*
X-4750000Y4600000D02*
D03*
X-4600000D02*
D03*
X-3450000Y3100000D02*
D03*
X-3250000D02*
D03*
X-3100000Y3200000D02*
D03*
X-1050000Y2500000D02*
D03*
Y2350000D02*
D03*
Y2150000D02*
D03*
Y2000000D02*
D03*
X-1600000Y2350000D02*
D03*
Y2150000D02*
D03*
X-1800000Y2350000D02*
D03*
Y2150000D02*
D03*
X-2276577Y4407625D02*
D03*
X-2436577D02*
D03*
X-1930272Y4412718D02*
D03*
X-4340000Y2350000D02*
D03*
Y2490000D02*
D03*
X-4500000Y2100000D02*
D03*
Y1850000D02*
D03*
Y1600000D02*
D03*
Y1350000D02*
D03*
X-3790000Y1100000D02*
D03*
Y1240000D02*
D03*
X-3950000D02*
D03*
Y1100000D02*
D03*
X-3790000Y750000D02*
D03*
Y890000D02*
D03*
X-3950000D02*
D03*
Y750000D02*
D03*
X-2540000D02*
D03*
Y890000D02*
D03*
X-2700000D02*
D03*
Y750000D02*
D03*
X-2540000Y1100000D02*
D03*
Y1240000D02*
D03*
X-2700000Y1100000D02*
D03*
X-3100000Y1450000D02*
D03*
X-3100000Y1350000D02*
D03*
X-2900000D02*
D03*
X-3000000D02*
D03*
X-3750000Y2000000D02*
D03*
X-3550000D02*
D03*
X-3650000D02*
D03*
X-1700000Y1000000D02*
D03*
X-1500000D02*
D03*
X-1600000D02*
D03*
X-1350000D02*
D03*
X-1150000D02*
D03*
X-1250000D02*
D03*
X-850000Y1350000D02*
D03*
X-650000D02*
D03*
X-750000D02*
D03*
X-450000Y1550000D02*
D03*
X-250000D02*
D03*
X-350000D02*
D03*
X-1556095Y2979930D02*
D03*
X-1475915Y2992507D02*
D03*
X-1508930Y2923332D02*
D03*
X-1435038Y2934337D02*
D03*
X-2100000Y4550000D02*
D03*
X-2250000D02*
D03*
X-2174655Y4464962D02*
D03*
X-2550000Y2225000D02*
D03*
X-4150000Y2500000D02*
D03*
X-2050000Y3080000D02*
D03*
X-1332500Y2982500D02*
D03*
X-1650000Y2020000D02*
D03*
X-1890000Y1160000D02*
D03*
X-2660000Y2540000D02*
D03*
X-2730000D02*
D03*
X-825000Y3375000D02*
D03*
X-310435Y3398991D02*
D03*
X-2930000Y2780000D02*
D03*
X-3001274D02*
D03*
X-3500000Y2900000D02*
D03*
Y2834186D02*
D03*
X-1575000Y1875000D02*
D03*
X-2870000Y1200000D02*
D03*
X-1970000Y2800000D02*
D03*
X-2550000Y2930000D02*
D03*
X-2444227Y2298273D02*
D03*
X-2400000Y3920000D02*
D03*
X-2408453Y1792500D02*
D03*
X-2000000Y1750000D02*
D03*
X-2870000Y1054601D02*
D03*
X-1820000Y3050000D02*
D03*
X-4100000Y4120000D02*
D03*
X-4470000Y4890000D02*
D03*
Y4960000D02*
D03*
Y4820000D02*
D03*
X-4610000D02*
D03*
Y4960000D02*
D03*
Y4900000D02*
D03*
X-2940000Y4340000D02*
D03*
X-2660000Y5620000D02*
D03*
X-4020000Y4010000D02*
D03*
X-3930000D02*
D03*
X-3215599Y3385361D02*
D03*
X-400000Y2400000D02*
D03*
Y3025000D02*
D03*
D98*
X-1850000Y5650000D02*
D03*
X-2125000Y3925000D02*
D03*
Y4075000D02*
D03*
Y4225000D02*
D03*
X-1750000Y5400000D02*
D03*
Y5725000D02*
D03*
Y5560000D02*
D03*
X-3511500Y3697500D02*
D03*
Y3817500D02*
D03*
X-3621501D02*
D03*
X-3721501Y3697500D02*
D03*
X-3621501D02*
D03*
X-3721501Y3817500D02*
D03*
X-2225000Y4225000D02*
D03*
Y4075000D02*
D03*
Y3925000D02*
D03*
X-3950000Y4350000D02*
D03*
D99*
X-3940000Y5700000D02*
D03*
X-4050000Y5600000D02*
D03*
Y5700000D02*
D03*
X-3820000D02*
D03*
X-2525000Y5650000D02*
D03*
X-1950000Y5885577D02*
D03*
%TF.MD5,046439789a2869bd92f786c44a05edc0*%
M02*
